<?xml version="1.0" encoding="UTF-8"?>
<!DOCTYPE svg PUBLIC "-//W3C//DTD SVG 1.1//EN" "http://www.w3.org/Graphics/SVG/1.1/DTD/svg11.dtd">
<!-- Creator: CorelDRAW -->
<svg xmlns="http://www.w3.org/2000/svg" xml:space="preserve" width="137.827mm" height="52.8116mm" version="1.1" style="shape-rendering:geometricPrecision; text-rendering:geometricPrecision; image-rendering:optimizeQuality; fill-rule:evenodd; clip-rule:evenodd"
viewBox="0 0 13782.64 5281.16"
 xmlns:xlink="http://www.w3.org/1999/xlink"
 xmlns:xodm="http://www.corel.com/coreldraw/odm/2003">
 <defs>
  <style type="text/css">
   <![CDATA[
    .fil0 {fill:#FEFEFE}
    .fil1 {fill:#FEFEFE;fill-rule:nonzero}
   ]]>
  </style>
 </defs>
 <g id="Слой_x0020_1">
  <metadata id="CorelCorpID_0Corel-Layer"/>
  <g id="_1577450751984">
   <path class="fil0" d="M2640.58 0c1458.35,0 2640.57,1182.22 2640.57,2640.58 0,1458.35 -1182.22,2640.58 -2640.57,2640.58 -1458.36,0 -2640.58,-1182.23 -2640.58,-2640.58 0,-1458.36 1182.22,-2640.58 2640.58,-2640.58zm2470.54 2574.51c-9.47,22.57 -23.44,44.72 -42.9,66.09 19.46,21.36 33.43,43.51 42.9,66.07 8.99,22.57 13.95,45.56 15.36,68.69 0.59,11.56 0.43,23.18 -0.34,34.8 -0.76,11.64 -2.04,23.31 -4.2,34.95 -4.24,23.31 -9.67,46.71 -16.78,70.06 -3.47,11.65 -6.95,23.36 -10.46,35.13 -3.53,11.74 -7.42,23.46 -10.88,35.27 -3.57,11.79 -6.7,23.68 -9.89,35.6 -3.23,11.91 -6.08,23.92 -8.42,36.07 -1.17,6.07 -2.22,12.18 -3.11,18.33 -1,6.13 -1.9,12.29 -2.6,18.52 -1.44,12.43 -2.19,25.06 -2.13,37.94 0.04,12.88 0.46,25.94 2.09,39.36 1.49,13.41 4.32,27.23 7.57,41.31 -21.75,-3.02 -39.91,-12.59 -54.94,-26.07 -15.09,-13.5 -26.86,-30.88 -35.21,-49.75 -8.15,-18.83 -13.84,-39.36 -15.5,-59.21 -1.54,-19.84 -0.37,-39.26 5.03,-56.08 -33.94,6.57 -67.4,2.14 -96.17,-10.54 -28.81,-12.72 -52.62,-33.57 -68.52,-60.78 -6.68,-11.51 -11.59,-24.13 -14.92,-37.87 -3.47,-13.76 -5.05,-28.59 -4.38,-44.51 2.2,-25.91 7.94,-45.64 16.78,-61.26 8.39,-15.65 19.71,-27.17 32.64,-36.44 25.2,-18.03 55.3,-21.33 79.26,-9.92 11.9,5.7 22.18,15.09 29.38,28.03 7.15,12.92 11.53,29.42 10.46,49.04 -19.94,-20.93 -56.24,-17.54 -74.77,11.76 -4.68,7.33 -5.57,16.09 -3.93,24.98 1.63,8.88 6.14,17.95 12.84,25.92 13.42,15.89 35.63,27.53 61.36,23.16 23.91,-4.09 44.99,-18.82 60.66,-39.64 7.58,-10.41 13.78,-22.33 18.29,-35.08 2.25,-6.38 4.08,-12.95 5.44,-19.65 1.4,-6.7 2.01,-13.53 2.29,-20.38 0.48,-13.71 -1.04,-27.52 -4.86,-40.72 -3.92,-13.2 -10.47,-25.79 -19.39,-37.05 -8.96,-11.26 -20.47,-21.18 -34.8,-29.12 -14.49,-7.96 -31.8,-13.92 -52.11,-17.38 -24.65,-4.2 -48.53,-3.99 -70.84,-0.16 -22.36,3.84 -42.92,11.31 -61.71,21.75 -18.69,10.45 -35.12,23.89 -48.48,39.91 -13.63,16.01 -24.55,34.56 -31.54,55.52 -20.62,58.69 -7.95,120.37 35.51,195.41 33.8,58.61 67.07,97.77 101.39,134.59 8.72,9.31 17.28,18.44 25.93,27.68 8.55,9.27 17.13,18.74 25.73,28.73 17.11,19.97 34.7,42.08 51.01,68.82 14.64,23.84 27.14,48.99 35.46,74.66 4.26,12.87 7.71,25.92 10.25,39.1 2.45,13.16 3.71,26.34 4.12,39.62 1.69,53.08 -14.65,106.49 -53.56,153.7 -10.35,12.35 -21.06,22.74 -32.16,31.37 -11.11,8.63 -23,15.34 -35.05,20.59 -24.22,10.44 -49.87,14.75 -77.89,14.3 -30.51,-0.42 -61.42,-10.15 -87.54,-26.53 -13.06,-8.19 -24.93,-18.02 -34.96,-29.19 -10,-11.15 -18.19,-23.64 -24.17,-37.3 -5.2,-12.02 -8.82,-23.88 -10.72,-35.51 -0.97,-5.83 -1.4,-11.56 -1.58,-17.3 -0.18,-5.75 0.08,-11.44 0.79,-17.05 1.45,-11.24 4.75,-22.2 10.07,-32.85 5.05,-10.77 12.09,-21.23 21.29,-31.39 10.95,-11.88 23.22,-21.69 36.44,-28.9 13.2,-7.2 27.24,-11.87 40.96,-13.59 13.76,-1.7 26.98,-0.54 38.94,4.14 11.94,4.67 22.46,12.81 30.15,24.86 7.36,15.59 8.15,30.44 4.61,42.99 -3.46,12.59 -11.83,22.64 -21.89,29.11 -20.31,12.97 -48.59,10.82 -67.89,-14.59 -2.6,5.79 -4.37,11.33 -5.38,16.59 -1.1,5.23 -1.5,10.19 -1.19,14.88 0.59,9.36 3.89,17.64 9.2,24.65 10.62,14.02 29.32,22.99 50.93,25.04 21.57,2.04 46.21,-2.89 68.28,-16.59 10.88,-6.9 21.12,-15.98 30.04,-27.35 4.43,-5.69 8.64,-11.92 12.23,-18.79 3.54,-6.89 6.65,-14.36 9.23,-22.42 10.63,-32.12 10.56,-62.01 3.88,-87.13 -6.93,-25.23 -21.34,-45.99 -39.98,-60.96 -37.41,-30.01 -92.93,-37.18 -146.31,-16.66 6.71,-7.32 12.37,-15.67 16.94,-24.66 2.26,-4.5 4.33,-9.14 5.99,-13.94 1.61,-4.8 2.94,-9.73 3.99,-14.72 4.21,-19.99 4,-41.05 -1.64,-60.56 -5.51,-19.49 -15.33,-37.11 -30.47,-50.59 -14.97,-13.45 -34.47,-22.57 -58.37,-25.34 11.06,26.05 15.12,50.38 15.71,73.39 0.22,11.5 -1.03,22.51 -2.83,33.25 -1.94,10.7 -4.31,21.18 -7.96,31.15 -7.17,19.98 -16.22,38.9 -27.25,56.64 -5.4,8.92 -11,17.63 -16.62,26.22 -5.7,8.55 -11.71,16.89 -17.39,25.23 -5.76,8.31 -11.16,16.65 -16.55,24.91 -5.43,8.24 -10.51,16.52 -15.06,24.95 -8.87,16.95 -16.62,34.08 -20.46,52.88 -1.87,9.42 -3.2,19.07 -3.5,29.23 -0.28,10.17 0.48,20.85 2.43,32.18 3.7,22.57 11.77,47.54 25.98,76.4 -31.48,6.83 -55.93,16.11 -75.99,27.21 -10.07,5.53 -18.89,11.6 -26.67,18.15 -3.89,3.28 -7.52,6.68 -10.91,10.2 -3.5,3.46 -6.77,7.04 -9.82,10.73 -12.24,14.76 -20.94,31.43 -28.64,48.96 -3.76,8.82 -7.07,17.96 -10.13,27.35 -3.23,9.29 -6.28,18.78 -9.21,28.46 -11.6,38.75 -23.79,79.34 -46.39,115.37 -23.12,35.49 -56.59,66.59 -110.9,82.11 17.08,16.96 36.35,26.5 56.17,29.78 9.91,1.63 19.94,1.72 29.87,0.42 9.81,-1.37 19.45,-4.18 28.74,-8.14 9.27,-3.97 18.16,-9.11 26.41,-15.2 8.09,-6.2 15.47,-13.41 21.95,-21.29 6.42,-7.93 12.17,-16.39 16.26,-25.64 4.17,-9.19 7.14,-18.83 8.67,-28.67 17.29,54.61 57.52,93.56 104.26,104.1 23.35,5.28 48.37,3.47 72.59,-6.69 11.92,-5.2 23.62,-12.49 34.77,-21.96 5.56,-4.76 11.07,-9.99 16.21,-15.89 5.1,-5.92 10.02,-12.4 14.69,-19.45 18.98,-28.02 24.21,-57.42 21.53,-82.96 -2.92,-25.74 -14.51,-48.15 -29.52,-63.74 -15.05,-15.64 -33.71,-24.69 -51.29,-24.28 -17.67,0.4 -33.78,10.42 -45.55,32.88 31.88,-0.73 51.18,20.07 53.7,44.04 2.82,24.02 -12.09,50.47 -45.61,58.43 -28.64,2.84 -51.59,-12.56 -65.72,-35.99 -7.2,-11.81 -12.31,-25.71 -14.92,-40.54 -2.66,-14.89 -2.51,-30.51 -0.05,-46.51 2.2,-13.54 5.99,-25.57 11.27,-36.22 5.13,-10.74 11.55,-20.2 19.46,-28.32 15.96,-16.15 36.5,-27.71 61.83,-34.49 7.17,-1.94 14.51,-3.22 21.95,-3.9 7.39,-0.71 14.82,-0.84 22.32,-0.39 14.98,0.9 30.06,4.07 44.59,9.19 29.07,10.26 55.93,28.39 75.26,52.01 17.82,21.66 30.32,44.37 37.29,69.86 3.37,12.68 5.61,26.2 5.68,40.21 0.17,14.07 -1.28,28.93 -4.48,44.71 -12.79,59.76 -44.26,105.84 -86.87,137.51 -42.25,32.02 -95.31,49.84 -150.9,56.54 -62.71,7.26 -111.57,1.52 -161.94,-2.25 -12.56,-0.93 -25.15,-1.74 -38.01,-2.23 -12.95,-0.57 -26.25,-0.9 -39.99,-0.69 -13.75,0.19 -27.96,0.88 -42.88,2.19 -15.1,1.16 -30.89,2.95 -47.56,5.52 -85.77,12.91 -141.95,41.51 -174.97,94.17 -5.93,9.36 -10.7,19.19 -14.65,29.08 -3.99,9.84 -6.97,19.95 -8.98,30.25 -2.02,10.29 -2.99,20.85 -3.15,31.32 -0.18,10.45 0.59,20.98 2.31,31.5 6.9,42.03 28.71,83.91 65.95,117.14 30.68,27.37 61.69,38.8 90.63,38.88 14.46,0.04 28.08,-3.06 40.91,-8.17 12.77,-5.18 24.72,-12.39 34.93,-21.54 10.3,-9.05 19.26,-19.6 26.52,-30.96 7.15,-11.47 12.43,-23.92 15.78,-36.4 6.79,-24.91 4.94,-50.76 -6.85,-72.03 -12.69,-22.87 -35.6,-32.89 -56.3,-33.36 -20.77,-0.47 -39.84,8.23 -45.36,24.79 -2.75,8.3 -3.62,16.33 -2.95,23.75 0.69,7.45 3.01,14.38 6.59,20.37 7.16,12.01 19.4,20.29 33.88,21.63 -14.95,12.76 -30.27,19.98 -44.77,22.53 -14.7,2.35 -28.51,0.11 -40.44,-5.68 -23.85,-11.55 -40.17,-37.24 -41.63,-67.97 -0.67,-15.7 1.1,-31.93 7.95,-48.39 3.41,-8.25 8.15,-16.5 14.31,-25.01 6.06,-8.62 13.67,-17.35 23.12,-26.28 12.31,-10.17 24.59,-18.5 37.46,-24.41 12.84,-5.96 26.04,-9.75 39.02,-11.89 30.87,-4.87 62.56,1.21 90.29,15.61 27.82,14.52 52.17,37.91 68.28,68.58 9.69,-14.78 23.95,-27.98 40.66,-38.92 16.51,-11.11 35.82,-19.7 55.92,-24.82 39.71,-10.48 83.64,-6.87 115.44,23.2 -13.31,6.01 -25.59,12.62 -37.01,19.79 -5.71,3.58 -11.2,7.3 -16.5,11.15 -5.4,3.77 -10.61,7.66 -15.63,11.67 -10.05,8.02 -19.39,16.52 -28.15,25.44 -8.89,8.8 -17.35,17.88 -25.3,27.35 -15.76,19.06 -30.59,38.69 -44.46,59.07 -13.99,20.4 -27.87,40.62 -41.61,60.64 -28.24,39.52 -57.96,77.2 -96.04,103.8 -9.49,6.67 -19.41,12.72 -29.86,18 -10.6,5.12 -21.73,9.45 -33.45,12.88 -11.76,3.38 -23.92,6.07 -37.08,7.29 -13.12,1.27 -26.89,1.48 -41.38,0.48 -4.22,29.01 -13.2,53.3 -24.91,74.85 -5.83,10.82 -12.66,20.52 -20.08,29.61 -7.42,9.08 -15.47,17.5 -24.03,25.35 -8.59,7.79 -17.87,14.77 -27.45,21.43 -9.64,6.59 -19.53,12.92 -29.94,18.56 -10.42,5.63 -21.12,10.94 -32,16.04 -5.44,2.55 -10.92,5.05 -16.44,7.51 -5.59,2.32 -11.21,4.65 -16.84,6.98 -11.28,4.54 -22.62,9.1 -34.02,13.69 -11.35,4.58 -22.96,8.83 -34.34,13.49 -11.46,4.55 -22.69,9.55 -34.02,14.42 -11.32,4.92 -22.49,10.18 -33.44,15.93 -10.9,5.84 -21.77,11.85 -32.39,18.47 -10.59,6.65 -20.93,13.94 -30.95,22.04 -10.15,7.86 -19.99,16.51 -29.49,26.14 -4.75,4.81 -9.42,9.86 -13.99,15.17 -4.58,5.31 -9.17,10.67 -13.62,16.43 -11.18,-18.85 -15.07,-39.14 -13.84,-59.17 1.21,-20.1 7.39,-40.27 16.93,-58.57 4.74,-9.22 10.43,-17.77 16.53,-26.12 6.13,-8.3 12.9,-15.99 20.12,-22.88 7.19,-6.95 14.96,-12.87 22.78,-18.22 7.84,-5.31 15.97,-9.63 24.22,-12.79 -26.29,-22.44 -43.68,-51.36 -51.7,-81.77 -8.03,-30.49 -6.55,-62.07 4.82,-91.47 4.84,-12.4 11.67,-24.08 20.31,-35.29 8.61,-11.27 19.23,-21.74 32.11,-31.12 10.82,-7.2 20.9,-12.86 30.62,-16.91 9.66,-4.12 18.99,-6.57 27.67,-8.23 17.49,-3.15 33.59,-1.44 48.91,2.92 29.74,8.37 51.02,29.74 57.11,55.69 3.06,13 2.11,26.86 -3.56,40.51 -2.82,6.82 -6.82,13.6 -12.07,20.16 -5.25,6.57 -11.74,12.92 -19.75,18.6 3.96,-28.6 -21.33,-54.89 -55.83,-51.17 -8.64,0.93 -16.12,5.56 -21.96,12.53 -5.94,6.8 -10.23,15.98 -12.28,26.18 -4.07,20.38 0.65,45.01 20.12,62.4 18.08,16.12 42.82,23.54 68.78,22.7 12.89,-0.55 26.09,-3.11 38.88,-7.51 6.38,-2.23 12.74,-4.8 18.75,-8.01 6.02,-3.23 11.83,-6.88 17.36,-10.95 11.01,-8.18 21.02,-17.78 28.82,-29.19 7.8,-11.42 13.68,-24.23 16.93,-38.21 1.62,-7 2.6,-14.27 2.81,-21.85 0.15,-7.64 -0.43,-15.53 -1.84,-23.67 -2.8,-16.27 -8.89,-33.48 -18.85,-51.5 -24.19,-43.72 -60.16,-74.19 -99.51,-90.07 -19.75,-8.01 -40.61,-12.64 -61.49,-13.15 -5.22,-0.13 -10.44,-0.01 -15.69,0.35 -5.29,0.28 -10.58,0.81 -15.87,1.61 -10.56,1.59 -21.08,4.23 -31.47,7.99 -58.7,20.48 -99.03,68.86 -130.63,149.62 -3.08,7.88 -5.91,15.59 -8.53,23.15 -2.68,7.46 -5.17,14.72 -7.45,21.88 -4.56,14.3 -8.35,28.09 -11.56,41.51 -6.47,26.76 -10.84,51.6 -14.51,76.64 -3.66,25.12 -7.06,49.55 -11.92,75.53 -2.43,12.97 -5.28,26.28 -8.8,40.11 -3.56,13.74 -7.91,27.81 -13.21,42.66 -4.73,13.21 -10.08,26.13 -16.08,38.66 -6.06,12.35 -12.8,24.22 -20.18,35.62 -7.41,11.33 -15.38,22.39 -24.18,32.38 -8.8,9.99 -18.27,19.35 -28.39,27.96 -5.06,4.29 -10.28,8.44 -15.68,12.3 -5.45,3.78 -11.05,7.35 -16.81,10.7 -11.53,6.7 -23.7,12.52 -36.49,17.33 -12.88,4.54 -26.39,8.04 -40.48,10.43 -7.05,1.17 -14.23,2.13 -21.59,2.67 -7.37,0.46 -14.89,0.61 -22.54,0.45 -16.1,-0.37 -30.86,-2.13 -44.57,-5.52 -13.73,-3.52 -26.33,-8.42 -37.95,-14.59 -11.63,-6.18 -22.28,-13.6 -32.17,-22.27 -9.92,-8.8 -19.05,-18.75 -27.59,-29.76 -37.35,-48.23 -46.61,-120.75 -18.67,-172.57 6.14,-11.59 13.15,-21.84 21.06,-30.61 7.9,-8.82 16.75,-15.91 26.39,-21.95 9.67,-5.91 20.29,-10.2 31.92,-12.74 2.91,-0.63 5.88,-1.15 8.91,-1.56 3.02,-0.49 6.1,-0.86 9.24,-1.12 6.29,-0.52 12.85,-0.58 19.68,-0.18 16.06,0.98 31.51,4.87 45.33,10.53 13.86,5.79 26.24,13.82 36.13,23.45 19.77,19.27 29.6,44.91 20.41,72.12 -7.59,15.5 -18.68,25.48 -30.7,30.52 -12.1,4.83 -25.08,4.86 -36.43,0.98 -22.78,-7.72 -38.71,-31.14 -30.9,-62.13 -12.24,3.33 -21.81,7.95 -28.72,14.38 -6.95,6.34 -11.36,14.1 -13.53,22.64 -4.32,17.08 0.31,37.29 12.18,55.44 11.86,18.14 31.03,34.19 55.52,42.97 12.26,4.45 25.66,6.54 40.12,6.44 14.41,-0.19 29.87,-2.64 45.61,-8.85 15.78,-6.11 29.65,-13.45 41.39,-22.18 11.7,-8.83 21.4,-18.68 29.11,-29.2 3.87,-5.26 7.22,-10.69 10.1,-16.24 2.85,-5.62 5.19,-11.42 7.06,-17.26 3.74,-11.71 5.57,-23.72 5.6,-35.73 0.12,-48.02 -28.88,-95.88 -78.16,-124.69 9.91,0.65 19.95,-0.16 29.81,-2.23 9.83,-2.13 19.61,-5.25 28.67,-9.99 9.1,-4.62 17.73,-10.3 25.57,-16.82 3.92,-3.27 7.64,-6.74 11.14,-10.4 3.44,-3.77 6.66,-7.72 9.61,-11.83 11.8,-16.48 19.38,-35.31 20.58,-55.34 1.18,-20.12 -3.85,-41.06 -16.58,-61.47 -3.4,6.15 -6.92,12.06 -10.64,17.49 -3.75,5.39 -7.63,10.47 -11.63,15.25 -8.02,9.55 -16.47,18.02 -25.33,25.31 -8.95,7.12 -18.24,13.23 -27.77,18.5 -4.77,2.64 -9.59,5.07 -14.46,7.31 -4.92,2.13 -9.89,4.04 -14.89,5.81 -10.01,3.52 -20.16,6.38 -30.36,8.77 -10.21,2.34 -20.61,3.86 -30.91,5.28 -10.34,1.31 -20.56,2.6 -30.86,3.34 -10.26,0.73 -20.45,1.45 -30.56,2.18 -10.01,0.83 -19.95,1.66 -29.82,2.48 -9.82,0.94 -19.44,2.17 -28.86,3.91 -9.38,1.86 -18.69,3.73 -27.72,6.48 -9.03,2.72 -17.82,6.15 -26.36,10.5 -17.18,8.41 -33.43,20.21 -48.7,37.43 -15.4,16.67 -29.78,39.04 -43.56,67.83 -49.77,-40.27 -90.37,-54.54 -128.73,-55.13 -9.59,-0.17 -18.99,0.6 -28.31,2.12 -9.29,1.61 -18.6,3.36 -27.82,6 -9.24,2.56 -18.45,5.67 -27.71,9.13 -9.26,3.3 -18.59,6.79 -28,10.53 -9.4,3.66 -18.87,7.7 -28.5,11.3 -9.64,3.56 -19.39,7.08 -29.29,10.35 -19.78,6.79 -40.26,11.42 -61.37,13.91 -10.54,1.32 -21.29,1.42 -32.17,0.85 -10.89,-0.6 -21.93,-2.05 -33.09,-4.57 -11.17,-2.82 -22.47,-6.7 -33.86,-11.84 -5.68,-2.57 -11.4,-5.46 -17.12,-8.68 -5.73,-3.22 -11.48,-7.07 -17.23,-11.12 -2.58,23.9 1.99,44.96 11.81,62.58 9.79,17.47 24.82,31.17 42.61,40.88 35.52,19.31 82.13,20.59 116.71,0.69 -31.93,47.44 -37.3,103.15 -16.39,146.33 10.42,21.5 27.44,40.24 50.46,52.58 22.97,12.1 52.06,18.91 85.73,15.71 33.75,-2.58 59.99,-16.89 78.3,-34.88 18.31,-18.27 28.6,-41.37 31.45,-62.81 2.84,-21.53 -1.71,-41.76 -12.99,-55.23 -11.32,-13.55 -29.2,-19.93 -54.09,-15.14 20.43,24.47 16.19,52.54 -0.99,69.45 -17.01,17.17 -47,22.02 -74.11,0.71 -10.03,-10.18 -15.61,-22.3 -17.49,-34.97 -1.89,-12.7 -0.07,-25.83 4.67,-38.85 4.75,-12.99 12.43,-25.64 22.41,-36.9 9.98,-11.34 22.31,-20.98 36.34,-29.03 11.96,-6.71 23.73,-11.26 35.35,-13.77 11.6,-2.62 23,-3.56 34.27,-2.44 22.58,2.39 44.43,11.37 65.52,26.85 23.91,17.71 41.44,43.46 51.55,72.59 10.1,29.11 12.67,61.42 6.25,91.3 -5.87,27.26 -15.81,51.31 -31.4,72.65 -15.56,21.53 -37.01,39.12 -65.67,53.88 -54.72,27.24 -110.37,31.3 -161.66,17.74 -12.83,-3.35 -25.4,-7.56 -37.65,-12.84 -12.26,-5.43 -24.2,-11.71 -35.77,-18.75 -11.58,-7.1 -22.78,-14.66 -33.59,-23.4 -10.82,-8.67 -21.23,-17.98 -31.22,-27.81 -11.2,-11.1 -21.2,-21.79 -30.38,-32.73 -9.16,-10.92 -17.49,-21.67 -25.31,-32.3 -15.65,-21.31 -29.31,-41.77 -43.52,-62.83 -14.19,-20.93 -28.93,-41.57 -46.4,-62.67 -8.73,-10.72 -18.14,-21.5 -28.48,-32.43 -10.34,-10.97 -21.62,-21.79 -34.02,-33.51 -63.67,-58.85 -121.1,-84.77 -182.8,-77.84 -11.04,1.44 -21.62,3.48 -31.81,6.56 -10.19,3.08 -19.95,7.13 -29.26,12.06 -18.6,9.79 -35.26,22.51 -49.58,38.46 -28.58,31.89 -47.62,74.62 -50.39,124.64 -2.3,41.29 8.17,72.37 26.19,94.99 17.95,22.83 43.63,35.54 70.56,40.89 13.5,2.46 27.38,2.66 40.79,1.18 13.42,-1.51 26.4,-4.81 38.28,-10.23 23.74,-10.61 42.74,-27.83 51.98,-50.21 4.99,-12.13 5.84,-24.22 3.89,-35.3 -1.95,-11.17 -6.68,-21.4 -12.96,-29.74 -6.29,-8.34 -14.14,-14.78 -22.44,-18.37 -8.31,-3.6 -17.09,-4.26 -25.25,-1.49 -32.64,11.45 -43.94,46.09 -27.93,70.25 -9.66,-1.78 -18.31,-4.51 -25.91,-7.99 -7.61,-3.48 -14.13,-8.04 -19.65,-12.96 -11.02,-9.94 -17.91,-22.08 -20.84,-34.97 -5.87,-25.79 4.03,-54.6 27.14,-75.05 23.81,-20.93 54.75,-33.81 106.17,-26.75 7.83,1.47 15.27,3.43 22.35,5.84 7.06,2.41 13.75,5.27 20.1,8.27 12.69,6.15 23.9,13.93 33.66,23 11.52,10.84 21.07,22.9 28.48,36.45 7.4,13.51 12.69,28.28 15.71,43.74 6.02,30.89 2.96,64.5 -10.92,96.09 8.79,-0.73 17.98,-0.26 27.35,1.03 9.38,1.17 18.93,3.33 28.42,6.43 9.48,3.08 18.91,7.08 28.04,11.9 9.12,4.67 17.95,10.07 26.22,16.27 16.51,12.33 30.83,27.86 40.63,45.39 9.79,17.51 15.08,37.47 13.2,59.31 -6.49,-3.25 -12.94,-6.12 -19.34,-8.85 -6.42,-2.81 -12.8,-5.34 -19.16,-7.61 -12.7,-4.55 -25.31,-8.08 -37.83,-10.75 -12.53,-2.74 -24.99,-5.01 -37.41,-6.36 -12.42,-1.47 -24.81,-1.95 -37.15,-2.43 -49.35,-1.63 -98.59,4.62 -147.22,7.29 -12.15,0.71 -24.25,1.32 -36.29,1.64 -12,0.07 -23.94,-0.13 -35.76,-0.75 -11.81,-0.69 -23.56,-1.46 -35.07,-3.45 -11.51,-1.88 -22.88,-4.33 -34.04,-7.52 -5.57,-1.59 -11.1,-3.36 -16.56,-5.34 -5.46,-2.02 -10.84,-4.39 -16.15,-6.89 -10.63,-5.06 -20.99,-10.98 -31,-17.95 -10.03,-6.86 -19.64,-15.14 -28.84,-24.57 -9.2,-9.41 -17.97,-19.99 -26.24,-31.9 -25.27,14.56 -49.92,22.85 -74.11,27.19 -24.08,3.89 -47.58,3.34 -70.53,-0.31 -11.42,-2.01 -22.72,-4.78 -33.9,-8.13 -11.19,-3.38 -22.3,-7.19 -33.19,-11.91 -21.8,-9.33 -43.41,-19.92 -64.61,-32.05 -10.6,-5.98 -21.25,-12 -31.95,-18.05 -10.61,-6.18 -21.21,-12.49 -31.94,-18.52 -21.55,-11.89 -43.13,-23.95 -65.8,-33.89 -11.37,-4.86 -22.79,-9.75 -34.61,-13.87 -11.8,-4.18 -23.98,-7.64 -36.53,-10.53 -12.47,-3.05 -25.37,-5.36 -38.83,-6.8 -6.72,-0.71 -13.58,-1.21 -20.59,-1.48 -6.96,-0.38 -14.05,-0.55 -21.31,-0.46 7.8,-20.49 21.25,-36.17 37.7,-47.68 16.45,-11.48 36.11,-19.27 56.36,-23.18 10.17,-2.01 20.43,-2.96 30.74,-3.3 10.31,-0.37 20.55,0.13 30.44,1.49 9.91,1.32 19.42,3.63 28.43,6.51 9.05,2.83 17.5,6.49 25.11,10.97 1.18,-34.53 13,-66.14 31.81,-91.35 9.41,-12.61 20.57,-23.61 33.09,-32.56 6.27,-4.49 12.85,-8.38 19.78,-11.86 6.95,-3.5 14.19,-6.44 21.71,-8.74 12.7,-3.93 26.14,-5.99 40.24,-6.06 14.18,-0.31 29,1.45 44.36,5.65 12.3,4.17 23.07,8.35 32.27,13.45 9.24,4.99 17,10.63 23.66,16.59 13.37,11.67 22.06,25.29 28.21,39.96 11.94,28.64 8.53,58.5 -8,79.48 -8.21,10.34 -19.65,18.25 -33.87,22.37 -14.19,4.05 -31.28,4.67 -50.16,-0.75 24.85,-14.76 29.65,-50.91 5.24,-75.51 -6.11,-6.21 -14.45,-9.01 -23.47,-9.43 -9.03,-0.4 -18.88,1.97 -28.15,6.73 -18.49,9.54 -34.82,28.58 -36.31,54.63 -1.36,24.21 8.3,48.04 25.1,67.97 8.46,9.75 18.7,18.44 30.13,25.69 5.72,3.62 11.72,6.88 17.95,9.71 6.24,2.8 12.76,4.97 19.38,6.77 13.27,3.54 27.09,5.16 40.82,4.39 13.8,-1.01 27.51,-4.46 40.48,-10.66 12.99,-6.26 25.2,-15.09 36.18,-27.5 10.99,-12.37 20.65,-27.88 28.54,-46.92 19.11,-46.25 20.45,-93.17 8.39,-133.97 -6.03,-20.57 -15.45,-39.6 -28.05,-56.21 -12.58,-16.72 -28.17,-31.63 -47.03,-43.08 -52.53,-33.18 -115.45,-34.59 -198.3,-9.06 -8.08,2.5 -15.91,5.14 -23.43,7.72 -7.49,2.52 -14.74,5.12 -21.76,7.8 -14.03,5.34 -27.19,10.96 -39.69,16.82 -24.94,11.51 -47.14,23.63 -69.02,36.33 -21.95,12.8 -43.15,25.26 -66.53,37.68 -11.68,6.16 -23.86,12.24 -36.88,18.09 -12.92,5.67 -26.67,11.12 -41.6,16.19 -13.28,4.52 -26.75,8.43 -40.25,11.48 -13.42,2.92 -26.93,5.07 -40.44,6.39 -27.13,2.84 -53.84,1.56 -79.92,-3.53 -13.1,-2.45 -25.76,-6.3 -38.19,-11.12 -12.4,-4.85 -24.61,-10.61 -36.24,-17.76 -23.11,-14.51 -44.83,-33.17 -63.26,-57.67 -19.67,-25.32 -30.79,-51.2 -35.67,-76.99 -4.96,-25.68 -3.01,-52.2 3.48,-79.17 14.34,-59.15 65.36,-111.77 123.26,-122.18 25.75,-4.79 49.56,-3.64 70.67,4.39 21.42,7.62 39.76,22.7 55.7,44.8 18.38,26.45 26.91,57.37 24.18,84.88 -2.75,27.45 -16.69,51.11 -43.72,60.89 -16.85,3.7 -31.65,1.39 -42.97,-5.04 -11.32,-6.43 -19.45,-16.53 -23.49,-27.81 -4.07,-11.27 -4.05,-23.7 0.73,-35.04 4.77,-11.32 14.08,-21.21 28.6,-27.83 -20.07,-15.52 -39.16,-17.27 -55.27,-9.97 -16.06,7.27 -28.98,23.5 -35.77,44.08 -6.79,20.57 -7.39,45.53 1.03,70.1 4.14,12.37 10.76,24.27 19.9,35.43 4.56,5.58 9.75,10.96 15.61,16.05 2.93,2.55 6.02,5.03 9.28,7.42 3.29,2.33 6.77,4.55 10.42,6.7 14.58,8.54 29.05,14.69 43.09,18.57 14.21,3.64 27.96,5.08 41,4.55 26.01,-0.91 49.54,-10.43 68.32,-25.29 37.67,-29.82 57.07,-82.29 48.92,-138.76 11.36,16.24 27.48,29.5 45.97,38.15 9.29,4.24 19.11,7.44 29.1,9.51 9.98,2.09 20.16,3.02 30.31,2.44 20.23,-1.02 39.73,-6.88 56.12,-18.34 16.48,-11.6 29.74,-28.58 37.79,-51.24 -13.94,2.49 -27.01,3.23 -39.49,2.93 -12.45,-0.35 -24.38,-1.61 -35.55,-4.1 -11.16,-2.55 -21.73,-6.01 -31.8,-10.17 -5.02,-2.11 -9.97,-4.3 -14.7,-6.81 -4.73,-2.53 -9.33,-5.22 -13.83,-8.03 -8.99,-5.64 -17.56,-11.78 -25.79,-18.26 -8.13,-6.65 -15.85,-13.74 -23.37,-20.94 -15.15,-14.22 -28.83,-29.88 -42.6,-44.62 -6.94,-7.3 -13.67,-14.72 -20.51,-21.83 -6.87,-7.08 -13.85,-13.83 -21.1,-20.09 -14.33,-12.77 -29.54,-23.82 -47,-31.78 -8.61,-4.15 -17.78,-7.54 -27.68,-10.02 -9.88,-2.51 -20.6,-3.97 -31.91,-4.83 -11.38,-0.76 -23.66,-0.51 -37.01,0.88 -6.67,0.69 -13.65,1.72 -20.84,2.91 -7.16,1.19 -14.61,2.66 -22.38,4.45 0.09,-16.02 -0.74,-30.53 -2.44,-43.74 -1.71,-13.19 -4.01,-25.43 -7.25,-36.38 -3.2,-11.01 -7.25,-20.85 -11.9,-29.9 -4.57,-9.17 -9.84,-17.44 -15.74,-24.98 -23.62,-30.08 -56.36,-49.99 -91.64,-69.97 -8.85,-4.96 -17.56,-10.19 -26.48,-15.38 -8.84,-5.25 -17.87,-10.49 -26.53,-16.25 -8.63,-5.8 -17.16,-11.86 -25.45,-18.32 -4.13,-3.24 -8.22,-6.57 -12.2,-10.02 -3.9,-3.55 -7.71,-7.21 -11.43,-11 -7.42,-7.58 -14.43,-15.71 -20.88,-24.48 -6.32,-8.87 -11.91,-18.53 -16.84,-28.88 -10.02,-20.55 -16.05,-44.99 -18.01,-72.81 -20.33,12.92 -33.87,29.57 -41.38,48.12 -7.48,18.5 -9.12,39.03 -5.51,58.91 1.87,9.88 4.98,19.63 9.16,28.97 4.19,9.33 9.35,18.31 15.76,26.25 12.72,15.95 28.7,29.21 47.48,36.29 -28.74,2.57 -54.5,11.2 -75.9,24.83 -21.39,13.6 -38.29,32.1 -48.71,53.81 -10.54,21.81 -14.03,46.33 -9.44,72.17 1.15,6.44 2.83,12.95 5.03,19.48 2.28,6.48 5.16,12.92 8.58,19.37 6.89,12.84 15.81,25.84 27.53,38.01 11.74,12.15 24.34,21.3 37.18,27.8 12.91,6.41 26.23,9.97 39.05,11.43 12.86,1.44 25.31,0.68 36.9,-1.9 11.67,-2.65 22.4,-7.03 31.71,-12.65 18.63,-11.25 31.58,-27.43 35.04,-44.61 3.31,-17.08 -2.37,-35.57 -21.94,-51.72 -6.26,31.14 -30.87,45.4 -54.91,42.65 -11.98,-1.35 -23.46,-7.21 -32.2,-16.87 -8.71,-9.69 -14.61,-23.23 -14.53,-40.68 3.65,-28.62 23.63,-47.46 49.71,-56.16 13.11,-4.4 27.49,-6.01 42.69,-5.41 15.11,0.7 30.6,4.02 45.37,10.26 50.75,20.55 73.65,60.14 76.11,112.18 1.28,29.51 -8.27,59.69 -24.62,85.65 -16.4,25.98 -40.23,48.34 -67.38,61.74 -24.87,12.31 -50,19.73 -76.44,20.93 -13.22,0.59 -26.49,-0.67 -40.33,-3.52 -13.74,-2.96 -28.16,-7.37 -42.62,-14.22 -13.82,-6.44 -26.6,-13.8 -38.36,-21.93 -11.76,-8.13 -22.15,-17.39 -31.74,-27.1 -19.27,-19.32 -33.68,-42.06 -44.73,-66.02 -5.5,-12.02 -9.75,-24.75 -13.31,-37.59 -3.47,-12.92 -6.24,-25.97 -7.88,-39.49 -1.65,-13.51 -2.48,-27.21 -2.56,-40.99 -0.07,-13.8 0.52,-27.59 2.11,-41.65 3.46,-31.49 9.09,-58.55 15.99,-84.11 6.93,-25.57 14.68,-49.26 21.96,-73.25 7.38,-24.06 14.6,-48.66 20.15,-75.45 2.72,-13.34 5.37,-27.49 7.51,-42.41 2.16,-14.94 3.75,-30.63 4.95,-47.45 6.35,-86.46 -9.02,-147.6 -52.99,-191.48 -8.01,-7.73 -16.15,-14.77 -24.94,-20.8 -8.77,-6.03 -18.03,-11.15 -27.7,-15.35 -19.12,-8.51 -39.59,-13.54 -60.98,-14.8 -10.67,-0.64 -21.53,-0.36 -32.45,0.86 -10.83,1.18 -21.75,3.32 -32.63,6.44 -21.75,6.25 -43.34,16.44 -63.72,30.95 -33.72,23.94 -51.65,51.58 -58,79.7 -6.6,28.23 -0.68,56.31 12.01,80.66 6.43,12.12 14.96,23.07 24.48,32.64 9.53,9.57 20.24,17.63 31.86,23.55 23.11,11.95 48.3,16.15 71.7,9.34 25.21,-7.35 39.83,-27.34 45.15,-47.59 5.27,-20.29 0.48,-40.48 -14.18,-49.69 -29.29,-18.39 -63.42,-5.63 -72.35,21.94 -4.62,-8.66 -7.88,-17.12 -9.89,-25.24 -1.97,-8.15 -2.52,-16.06 -2.09,-23.44 0.89,-14.81 6.08,-27.76 14.33,-38.08 16.49,-20.66 45.2,-30.88 75.62,-25.57 31.24,5.55 60.53,21.77 87.09,66.36 14.63,28.32 20.46,56.04 18.37,82.66 -2.14,31.22 -14.71,60.51 -35.16,84.55 -20.42,23.99 -48.6,42.55 -81.93,51.37 24.14,25.68 39.48,66.94 40.81,108.27 0.45,20.8 -2.36,41.37 -9.98,60.02 -7.62,18.63 -19.94,35.26 -38.17,47.4 -2.98,-14.25 -6.83,-27.6 -11.31,-40.31 -4.32,-12.83 -9.37,-24.94 -15.05,-36.46 -2.84,-5.76 -5.83,-11.37 -8.97,-16.86 -3.06,-5.54 -6.21,-10.99 -9.52,-16.29 -6.61,-10.63 -13.73,-20.79 -21.26,-30.6 -7.46,-9.87 -15.08,-19.56 -23.12,-28.91 -7.95,-9.41 -16.44,-18.41 -24.57,-27.62 -16.39,-18.31 -33.78,-35.83 -49.81,-54.1 -8.13,-9.06 -16.13,-18.16 -23.89,-27.38 -7.56,-9.32 -14.82,-18.78 -21.72,-28.41 -13.96,-19.16 -25.53,-39.49 -34.5,-60.88 -2.22,-5.36 -4.33,-10.76 -6.13,-16.29 -1.75,-5.57 -3.31,-11.21 -4.66,-16.93 -2.69,-11.46 -4.52,-23.24 -5.33,-35.39 -1.48,-24.39 1.61,-50.54 9.81,-78.26 -26.85,-10.81 -49.12,-24.72 -67.38,-41.02 -9,-8.21 -17.07,-16.99 -24.35,-26.23 -7.27,-9.24 -13.83,-18.91 -19.31,-29.13 -11.08,-20.37 -19.92,-42.05 -26.18,-64.93 -3.23,-11.4 -6.08,-23 -8.69,-34.73 -2.49,-11.77 -4.51,-23.75 -6.57,-35.75 -8.31,-48.03 -13.17,-97.51 -25.84,-145.3 -3.1,-11.99 -6.46,-23.95 -10.65,-35.75 -4.09,-11.84 -9.18,-23.47 -14.48,-35.15 -10.79,-23.31 -25.36,-46.03 -43.54,-68.58 20.87,-6.68 41.54,-5.92 60.81,-0.24 19.15,5.72 37.43,16.26 53.22,29.64 7.9,6.7 15.18,14.1 21.73,21.98 6.56,7.88 12.72,16.15 17.81,24.73 5.14,8.57 9.41,17.4 12.66,26.29 3.2,8.9 5.82,17.73 7.04,26.47 27.69,-20.58 59.77,-31.06 91.25,-32.07 15.73,-0.5 31.32,1.36 46.15,5.56 14.89,4.19 28.73,10.8 41.88,19.61 11.02,7.49 21.11,16.68 29.93,27.66 8.79,10.99 16.95,23.57 23.24,38.2 2.28,6.09 4.08,11.96 5.67,17.55 1.65,5.58 2.92,10.94 3.86,16.1 1.87,10.33 2.4,19.88 1.85,28.81 -1.07,17.84 -6,33.02 -13.68,46.99 -14.8,27.12 -40.67,43.23 -67.1,43.28 -13.21,0.02 -26.56,-3.98 -38.69,-12.51 -6.07,-4.26 -11.82,-9.65 -17.08,-16.22 -5.11,-6.63 -9.68,-14.45 -13.57,-23.48 27.11,10.2 58.34,-8.57 62.25,-42.95 0.49,-4.32 -0.02,-8.53 -1.27,-12.61 -1.2,-4.09 -3.2,-8.02 -5.88,-11.66 -5.35,-7.3 -13.38,-13.51 -22.91,-17.77 -19.09,-8.48 -44.07,-9.41 -65.41,5.69 -19.75,14.02 -32.3,36.4 -37.33,61.93 -2.64,12.8 -2.84,26.15 -1.37,39.6 1.58,13.4 4.72,26.95 10.32,39.49 5.55,12.57 12.94,24.35 22.14,34.59 9.07,10.3 20.6,18.74 33.5,25.04 12.98,6.26 27.67,10.21 44.04,11.14 16.4,0.94 34.67,-1.23 54.45,-6.92 24.03,-6.92 45.44,-17.48 63.88,-30.62 18.42,-13.14 33.82,-28.84 46.2,-46.38 12.31,-17.52 21.21,-36.7 26.36,-56.92 5.55,-20.4 6.92,-41.66 4.49,-63.69 -7.04,-61.68 -45.08,-111.78 -116.67,-160.65 -7.1,-4.73 -13.89,-9.25 -20.52,-13.54 -6.66,-4.28 -13.23,-8.32 -19.71,-12.13 -12.94,-7.65 -25.66,-14.39 -37.94,-20.55 -24.37,-12.36 -47.9,-22.1 -71.47,-31.3 -23.49,-9.23 -46.59,-18.01 -70.88,-28.56 -12.07,-5.29 -24.61,-11 -37.07,-17.57 -12.51,-6.57 -25.36,-13.93 -38.65,-22.43 -11.78,-7.58 -23.38,-15.65 -34.03,-24.33 -10.66,-8.68 -20.77,-17.9 -30.24,-27.64 -19.16,-19.44 -34.73,-41.15 -47.03,-64.71 -6.26,-11.77 -11.18,-24.06 -15.12,-36.79 -3.95,-12.71 -6.93,-25.86 -8.74,-39.39 -1.53,-13.55 -1.94,-27.49 -1.11,-41.74 0.42,-7.13 1.13,-14.33 2.2,-21.6 1.2,-7.28 2.74,-14.64 4.61,-22.04 3.94,-15.58 9.06,-29.57 15.28,-42.14 6.51,-12.59 14.11,-23.76 22.73,-33.7 17.22,-19.88 38.55,-34.87 63.98,-46.62 27.67,-12.84 59.73,-17.49 90.38,-14.09 15.31,1.7 30.28,5.41 44.16,11.11 13.91,5.71 26.59,13.4 37.93,23.12 39.57,34.39 55.4,77.06 40.28,129.5 -9.33,30.86 -28.01,56.78 -51.32,71.81 -23.2,14.96 -50.39,18.8 -74.87,3.75 -13.4,-10.86 -20.69,-23.88 -22.88,-36.73 -2,-12.86 0.88,-25.51 7.18,-35.71 12.62,-20.47 39.01,-30.78 67.47,-16.24 -0.5,-12.68 -2.91,-23.03 -7.61,-31.21 -4.62,-8.17 -11.19,-14.21 -19.03,-18.22 -15.68,-8.03 -36.42,-8.01 -56.76,-0.49 -20.34,7.51 -40.27,22.6 -54.31,44.5 -7.03,10.93 -12.1,23.53 -15.23,37.63 -3.01,14.08 -4.13,29.68 -1.57,46.4 2.4,16.74 6.56,31.88 12.31,45.28 6.01,13.37 13.46,25.02 22,34.89 16.92,19.78 38.99,32.25 62.35,37.67 46.83,10.87 99.9,-6.65 139,-48.23 -5.68,19.02 -5.83,39.86 -1.22,59.74 5.06,19.79 14.36,38.7 27.68,53.9 13.44,15.18 30.26,26.75 49.38,32.44 19.15,5.71 40.88,5.44 63.55,-2.37 -10.63,-9.35 -19.18,-19.15 -26.84,-29.06 -7.49,-9.96 -14.11,-20.03 -18.93,-30.36 -9.87,-20.64 -15.88,-41.63 -18.06,-62.76 -1.21,-10.54 -1.76,-21.07 -1.83,-31.54 0.19,-10.51 0.88,-20.97 1.83,-31.33 1.68,-20.71 5.38,-41.16 8.36,-61.13 1.43,-9.95 2.84,-19.84 4.25,-29.64 1.29,-9.79 2.23,-19.47 2.63,-29.04 0.3,-9.57 0.51,-19.07 -0.13,-28.5 -0.63,-9.42 -2.01,-18.78 -4.33,-28.09 -4.51,-18.64 -12.19,-37.15 -25.66,-55.88 -13.05,-18.76 -31.21,-37.78 -56.58,-57.62 25.37,-19.85 43.53,-38.85 56.58,-57.61 13.46,-18.74 21.15,-37.25 25.66,-55.89 2.32,-9.32 3.7,-18.66 4.33,-28.09 0.64,-9.43 0.43,-18.93 0.13,-28.5 -0.4,-9.58 -1.34,-19.24 -2.63,-29.03 -1.41,-9.82 -2.82,-19.7 -4.25,-29.65 -2.98,-19.96 -6.68,-40.42 -8.36,-61.13 -0.95,-10.37 -1.64,-20.82 -1.83,-31.34 0.07,-10.47 0.62,-20.99 1.83,-31.53 2.18,-21.13 8.19,-42.13 18.06,-62.75 4.82,-10.35 11.44,-20.42 18.93,-30.37 7.66,-9.92 16.21,-19.71 26.84,-29.06 -22.67,-7.81 -44.4,-8.08 -63.54,-2.37 -19.13,5.68 -35.95,17.26 -49.39,32.44 -13.32,15.19 -22.62,34.11 -27.68,53.9 -4.61,19.87 -4.46,40.72 1.22,59.74 -39.1,-41.57 -92.18,-59.1 -139,-48.24 -23.36,5.42 -45.43,17.89 -62.35,37.67 -8.54,9.87 -15.99,21.52 -22,34.9 -5.75,13.4 -9.91,28.54 -12.31,45.27 -2.56,16.72 -1.44,32.32 1.57,46.41 3.13,14.09 8.2,26.69 15.23,37.62 14.04,21.9 33.97,37 54.31,44.5 20.34,7.52 41.09,7.54 56.76,-0.48 7.84,-4.02 14.41,-10.05 19.03,-18.23 4.7,-8.18 7.11,-18.53 7.61,-31.2 -28.46,14.53 -54.85,4.22 -67.47,-16.25 -6.31,-10.2 -9.18,-22.84 -7.18,-35.71 2.19,-12.84 9.48,-25.87 22.88,-36.73 24.48,-15.04 51.68,-11.2 74.87,3.75 23.32,15.03 42,40.95 51.32,71.82 15.12,52.43 -0.7,95.1 -40.27,129.49 -11.35,9.72 -24.02,17.41 -37.93,23.12 -13.89,5.7 -28.85,9.41 -44.17,11.11 -30.65,3.41 -62.71,-1.25 -90.37,-14.09 -25.44,-11.74 -46.77,-26.73 -63.98,-46.62 -8.63,-9.94 -16.23,-21.11 -22.73,-33.69 -6.23,-12.57 -11.35,-26.56 -15.29,-42.14 -1.87,-7.41 -3.4,-14.77 -4.61,-22.05 -1.06,-7.27 -1.78,-14.47 -2.2,-21.6 -0.83,-14.24 -0.42,-28.18 1.11,-41.73 1.82,-13.54 4.79,-26.69 8.74,-39.41 3.95,-12.72 8.87,-25.01 15.12,-36.78 12.31,-23.57 27.87,-45.27 47.04,-64.71 9.46,-9.74 19.58,-18.96 30.23,-27.64 10.65,-8.68 22.25,-16.76 34.03,-24.33 13.29,-8.5 26.14,-15.86 38.65,-22.43 12.47,-6.58 25,-12.28 37.07,-17.58 24.3,-10.54 47.4,-19.32 70.88,-28.55 23.57,-9.2 47.1,-18.94 71.47,-31.31 12.28,-6.15 25,-12.89 37.94,-20.54 6.49,-3.82 13.05,-7.85 19.71,-12.13 6.63,-4.3 13.43,-8.81 20.52,-13.54 71.6,-48.86 109.64,-98.98 116.68,-160.65 2.42,-22.03 1.06,-43.29 -4.5,-63.68 -5.15,-20.23 -14.05,-39.41 -26.36,-56.93 -12.37,-17.55 -27.77,-33.25 -46.2,-46.39 -18.43,-13.14 -39.85,-23.7 -63.88,-30.61 -19.77,-5.69 -38.04,-7.86 -54.44,-6.93 -16.38,0.94 -31.07,4.89 -44.05,11.15 -12.89,6.29 -24.43,14.74 -33.5,25.03 -9.2,10.25 -16.59,22.04 -22.13,34.6 -5.61,12.54 -8.75,26.08 -10.33,39.49 -1.47,13.44 -1.27,26.8 1.37,39.6 5.03,25.54 17.58,47.91 37.33,61.93 21.34,15.1 46.32,14.17 65.41,5.69 9.53,-4.26 17.56,-10.47 22.91,-17.77 2.68,-3.65 4.68,-7.57 5.88,-11.66 1.24,-4.08 1.75,-8.29 1.27,-12.6 -3.91,-34.39 -35.14,-53.16 -62.25,-42.96 3.89,-9.02 8.46,-16.85 13.57,-23.48 5.26,-6.57 11.01,-11.96 17.08,-16.22 12.13,-8.53 25.48,-12.53 38.69,-12.5 26.43,0.05 52.3,16.15 67.1,43.27 7.68,13.97 12.61,29.15 13.68,46.99 0.55,8.93 0.02,18.48 -1.85,28.81 -0.94,5.16 -2.21,10.52 -3.86,16.1 -1.59,5.59 -3.39,11.46 -5.67,17.55 -6.29,14.63 -14.45,27.21 -23.24,38.21 -8.82,10.97 -18.91,20.16 -29.93,27.65 -13.15,8.8 -26.98,15.42 -41.88,19.61 -14.84,4.2 -30.42,6.06 -46.15,5.56 -31.48,-1.01 -63.56,-11.49 -91.25,-32.08 -1.22,8.75 -3.84,17.58 -7.05,26.48 -3.25,8.88 -7.51,17.72 -12.65,26.29 -5.09,8.58 -11.25,16.85 -17.81,24.73 -6.55,7.89 -13.83,15.28 -21.73,21.98 -15.79,13.38 -34.06,23.92 -53.22,29.64 -19.27,5.68 -39.94,6.43 -60.81,-0.24 18.18,-22.55 32.75,-45.27 43.54,-68.58 5.3,-11.68 10.39,-23.31 14.48,-35.14 4.19,-11.81 7.55,-23.77 10.65,-35.75 12.67,-47.8 17.53,-97.28 25.84,-145.31 2.06,-11.99 4.08,-23.98 6.57,-35.75 2.61,-11.72 5.45,-23.33 8.69,-34.72 6.26,-22.89 15.09,-44.56 26.18,-64.94 5.48,-10.22 12.04,-19.89 19.31,-29.13 7.28,-9.24 15.35,-18.01 24.35,-26.23 18.26,-16.3 40.53,-30.21 67.38,-41.02 -8.2,-27.72 -11.29,-53.86 -9.81,-78.26 0.81,-12.15 2.64,-23.93 5.33,-35.38 1.35,-5.73 2.91,-11.37 4.66,-16.93 1.8,-5.54 3.91,-10.94 6.13,-16.3 8.96,-21.39 20.54,-41.72 34.5,-60.88 6.89,-9.62 14.16,-19.09 21.72,-28.41 7.76,-9.22 15.76,-18.31 23.88,-27.38 16.04,-18.26 33.42,-35.79 49.82,-54.1 8.13,-9.21 16.62,-18.21 24.57,-27.62 8.04,-9.35 15.66,-19.04 23.12,-28.91 7.52,-9.8 14.65,-19.97 21.26,-30.59 3.31,-5.31 6.46,-10.76 9.52,-16.3 3.14,-5.48 6.13,-11.09 8.97,-16.85 5.68,-11.52 10.73,-23.64 15.05,-36.47 4.48,-12.71 8.33,-26.05 11.31,-40.31 18.23,12.15 30.55,28.77 38.17,47.41 7.62,18.64 10.43,39.22 9.98,60.01 -1.33,41.33 -16.67,82.59 -40.81,108.28 33.33,8.82 61.51,27.37 81.93,51.36 20.46,24.05 33.02,53.33 35.17,84.55 2.08,26.63 -3.75,54.34 -18.38,82.66 -26.56,44.6 -55.85,60.81 -87.09,66.36 -30.42,5.32 -59.12,-4.9 -75.62,-25.56 -8.25,-10.33 -13.44,-23.27 -14.33,-38.08 -0.42,-7.39 0.13,-15.3 2.1,-23.44 2.01,-8.13 5.26,-16.58 9.89,-25.25 8.93,27.57 43.05,40.33 72.34,21.95 14.67,-9.21 19.46,-29.4 14.18,-49.69 -5.32,-20.25 -19.94,-40.24 -45.14,-47.6 -23.4,-6.8 -48.6,-2.61 -71.7,9.35 -11.62,5.91 -22.34,13.98 -31.87,23.55 -9.51,9.57 -18.04,20.52 -24.48,32.64 -12.69,24.35 -18.61,52.42 -12,80.66 6.34,28.13 24.27,55.76 57.99,79.7 20.38,14.5 41.97,24.7 63.72,30.95 10.88,3.12 21.8,5.25 32.63,6.43 10.93,1.23 21.79,1.51 32.46,0.87 21.39,-1.27 41.85,-6.3 60.97,-14.81 9.67,-4.2 18.93,-9.31 27.7,-15.35 8.79,-6.02 16.93,-13.06 24.95,-20.8 43.96,-43.87 59.34,-105.02 52.98,-191.48 -1.19,-16.82 -2.78,-32.51 -4.94,-47.44 -2.15,-14.93 -4.8,-29.08 -7.52,-42.42 -5.54,-26.78 -12.77,-51.39 -20.15,-75.44 -7.28,-24 -15.03,-47.69 -21.95,-73.26 -6.91,-25.56 -12.53,-52.62 -16,-84.11 -1.59,-14.06 -2.17,-27.85 -2.11,-41.65 0.08,-13.77 0.92,-27.47 2.56,-40.99 1.64,-13.51 4.41,-26.57 7.89,-39.49 3.55,-12.84 7.8,-25.57 13.3,-37.59 11.06,-23.96 25.47,-46.71 44.73,-66.02 9.59,-9.71 19.98,-18.97 31.74,-27.1 11.77,-8.13 24.54,-15.49 38.37,-21.93 14.45,-6.85 28.88,-11.26 42.61,-14.22 13.84,-2.85 27.12,-4.11 40.34,-3.51 26.43,1.19 51.57,8.61 76.43,20.92 27.16,13.4 50.98,35.76 67.38,61.74 16.36,25.96 25.9,56.14 24.62,85.65 -2.45,52.05 -25.35,91.64 -76.11,112.19 -14.77,6.23 -30.26,9.56 -45.37,10.25 -15.2,0.61 -29.58,-1 -42.68,-5.4 -26.09,-8.7 -46.06,-27.55 -49.71,-56.16 -0.08,-17.45 5.81,-30.99 14.52,-40.69 8.74,-9.65 20.22,-15.5 32.2,-16.86 24.04,-2.74 48.65,11.51 54.92,42.66 19.56,-16.16 25.25,-34.65 21.93,-51.73 -3.45,-17.18 -16.41,-33.36 -35.04,-44.6 -9.3,-5.63 -20.04,-10.01 -31.71,-12.66 -11.59,-2.58 -24.04,-3.33 -36.9,-1.91 -12.82,1.47 -26.14,5.03 -39.05,11.44 -12.83,6.5 -25.44,15.65 -37.18,27.8 -11.71,12.17 -20.64,25.17 -27.53,38 -3.41,6.46 -6.29,12.9 -8.57,19.37 -2.21,6.55 -3.89,13.05 -5.04,19.49 -4.59,25.83 -1.09,50.36 9.45,72.16 10.42,21.71 27.31,40.22 48.71,53.83 21.4,13.61 47.15,22.25 75.89,24.81 -18.78,7.09 -34.76,20.34 -47.47,36.3 -6.41,7.94 -11.58,16.92 -15.76,26.25 -4.19,9.34 -7.3,19.09 -9.17,28.97 -3.61,19.87 -1.97,40.41 5.51,58.91 7.51,18.55 21.05,35.2 41.38,48.12 1.96,-27.83 8,-52.26 18.01,-72.81 4.93,-10.35 10.52,-20.01 16.84,-28.89 6.45,-8.77 13.46,-16.89 20.88,-24.47 3.72,-3.79 7.53,-7.45 11.43,-10.99 3.98,-3.47 8.07,-6.79 12.2,-10.03 8.29,-6.46 16.82,-12.53 25.45,-18.32 8.66,-5.77 17.69,-11 26.54,-16.26 8.92,-5.18 17.63,-10.41 26.47,-15.37 35.28,-19.99 68.03,-39.9 91.64,-69.98 5.9,-7.54 11.18,-15.8 15.74,-24.97 4.66,-9.05 8.71,-18.9 11.9,-29.9 3.24,-10.95 5.54,-23.2 7.25,-36.38 1.7,-13.21 2.54,-27.72 2.44,-43.74 7.77,1.79 15.22,3.27 22.39,4.44 7.18,1.2 14.17,2.23 20.83,2.91 13.35,1.4 25.63,1.65 37.01,0.89 11.31,-0.86 22.03,-2.32 31.91,-4.83 9.9,-2.49 19.08,-5.87 27.68,-10.03 17.46,-7.96 32.68,-19 47.01,-31.77 7.24,-6.26 14.23,-13 21.09,-20.09 6.84,-7.11 13.58,-14.53 20.51,-21.83 13.77,-14.73 27.45,-30.4 42.6,-44.62 7.52,-7.19 15.24,-14.28 23.37,-20.93 8.23,-6.49 16.8,-12.64 25.79,-18.27 4.5,-2.81 9.11,-5.5 13.83,-8.03 4.74,-2.51 9.68,-4.7 14.7,-6.8 10.07,-4.16 20.65,-7.62 31.8,-10.18 11.17,-2.49 23.1,-3.75 35.56,-4.09 12.47,-0.3 25.54,0.43 39.48,2.92 -8.05,-22.65 -21.31,-39.64 -37.79,-51.24 -16.39,-11.45 -35.89,-17.31 -56.12,-18.33 -10.15,-0.58 -20.33,0.34 -30.3,2.43 -10,2.07 -19.81,5.28 -29.11,9.51 -18.48,8.66 -34.61,21.92 -45.97,38.15 8.15,-56.47 -11.25,-108.94 -48.92,-138.76 -18.78,-14.86 -42.31,-24.38 -68.32,-25.28 -13.04,-0.53 -26.79,0.91 -40.99,4.55 -14.05,3.88 -28.51,10.02 -43.09,18.57 -3.65,2.14 -7.13,4.36 -10.43,6.69 -3.26,2.39 -6.35,4.87 -9.28,7.42 -5.84,5.1 -11.04,10.48 -15.61,16.06 -9.14,11.15 -15.76,23.05 -19.89,35.42 -8.42,24.58 -7.83,49.53 -1.03,70.1 6.79,20.58 19.71,36.81 35.77,44.09 16.12,7.29 35.2,5.54 55.28,-9.98 -14.54,-6.61 -23.85,-16.51 -28.61,-27.83 -4.79,-11.33 -4.8,-23.76 -0.74,-35.03 4.05,-11.27 12.17,-21.38 23.5,-27.82 11.33,-6.42 26.12,-8.73 42.96,-5.03 27.03,9.78 40.98,33.44 43.73,60.89 2.73,27.51 -5.8,58.43 -24.18,84.87 -15.94,22.11 -34.28,37.2 -55.71,44.81 -21.11,8.03 -44.92,9.18 -70.66,4.39 -57.9,-10.41 -108.92,-63.02 -123.26,-122.18 -6.5,-26.97 -8.44,-53.49 -3.48,-79.17 4.87,-25.79 15.99,-51.67 35.66,-76.99 18.43,-24.5 40.16,-43.16 63.27,-57.67 11.63,-7.15 23.84,-12.9 36.24,-17.76 12.43,-4.83 25.09,-8.67 38.19,-11.11 26.08,-5.09 52.78,-6.38 79.91,-3.54 13.52,1.32 27.03,3.48 40.45,6.39 13.5,3.05 26.97,6.96 40.25,11.48 14.92,5.07 28.67,10.52 41.6,16.19 13.02,5.86 25.2,11.93 36.88,18.09 23.39,12.42 44.58,24.88 66.53,37.68 21.89,12.7 44.08,24.83 69.01,36.33 12.51,5.86 25.66,11.49 39.7,16.83 7.02,2.67 14.26,5.27 21.76,7.79 7.51,2.58 15.34,5.22 23.42,7.71 82.86,25.54 145.77,24.12 198.31,-9.05 18.85,-11.45 34.44,-26.37 47.03,-43.09 12.59,-16.61 22.02,-35.64 28.04,-56.2 12.06,-40.81 10.72,-87.73 -8.39,-133.98 -7.88,-19.03 -17.55,-34.54 -28.53,-46.9 -10.99,-12.42 -23.19,-21.26 -36.18,-27.52 -12.98,-6.19 -26.69,-9.64 -40.49,-10.65 -13.73,-0.77 -27.54,0.85 -40.81,4.39 -6.62,1.8 -13.15,3.97 -19.38,6.77 -6.23,2.83 -12.24,6.08 -17.95,9.71 -11.43,7.25 -21.68,15.94 -30.14,25.69 -16.79,19.93 -26.45,43.76 -25.09,67.96 1.48,26.06 17.82,45.1 36.31,54.63 9.26,4.77 19.11,7.14 28.14,6.74 9.02,-0.42 17.37,-3.22 23.47,-9.43 24.42,-24.61 19.61,-60.75 -5.24,-75.51 18.89,-5.43 35.97,-4.81 50.16,-0.76 14.22,4.13 25.66,12.02 33.88,22.38 16.52,20.97 19.94,50.83 8,79.48 -6.15,14.67 -14.85,28.29 -28.22,39.96 -6.65,5.96 -14.42,11.59 -23.65,16.59 -9.21,5.09 -19.98,9.27 -32.28,13.45 -15.36,4.2 -30.17,5.96 -44.36,5.65 -14.09,-0.07 -27.53,-2.13 -40.24,-6.05 -7.51,-2.31 -14.76,-5.25 -21.71,-8.75 -6.93,-3.48 -13.5,-7.36 -19.77,-11.86 -12.52,-8.95 -23.69,-19.95 -33.09,-32.56 -18.82,-25.21 -30.63,-56.82 -31.82,-91.35 -7.6,4.48 -16.05,8.14 -25.1,10.97 -9.02,2.88 -18.53,5.19 -28.43,6.51 -9.89,1.36 -20.13,1.86 -30.45,1.48 -10.3,-0.33 -20.57,-1.27 -30.72,-3.29 -20.26,-3.91 -39.93,-11.71 -56.38,-23.18 -16.44,-11.52 -29.9,-27.2 -37.69,-47.68 7.26,0.1 14.35,-0.08 21.31,-0.46 7.01,-0.27 13.87,-0.77 20.6,-1.48 13.44,-1.44 26.35,-3.74 38.82,-6.79 12.55,-2.89 24.72,-6.36 36.52,-10.53 11.83,-4.13 23.25,-9.01 34.62,-13.88 22.67,-9.94 44.24,-22 65.79,-33.89 10.74,-6.03 21.33,-12.34 31.95,-18.52 10.7,-6.05 21.35,-12.06 31.95,-18.05 21.19,-12.13 42.8,-22.72 64.61,-32.04 10.88,-4.73 22,-8.54 33.18,-11.91 11.19,-3.36 22.49,-6.12 33.91,-8.14 22.95,-3.65 46.45,-4.19 70.53,-0.31 24.19,4.34 48.84,12.64 74.11,27.2 8.27,-11.91 17.05,-22.49 26.24,-31.91 9.2,-9.42 18.81,-17.71 28.84,-24.57 10.01,-6.97 20.37,-12.89 31,-17.95 5.31,-2.5 10.68,-4.87 16.14,-6.89 5.47,-1.97 10.99,-3.75 16.57,-5.34 11.16,-3.19 22.52,-5.64 34.04,-7.52 11.51,-1.99 23.26,-2.76 35.07,-3.45 11.82,-0.63 23.76,-0.82 35.76,-0.75 12.03,0.32 24.14,0.94 36.29,1.64 48.62,2.67 97.87,8.93 147.21,7.3 12.35,-0.49 24.74,-0.96 37.16,-2.44 12.41,-1.35 24.87,-3.61 37.4,-6.36 12.53,-2.67 25.13,-6.2 37.84,-10.75 6.35,-2.27 12.74,-4.8 19.15,-7.6 6.42,-2.73 12.86,-5.61 19.35,-8.86 1.88,21.83 -3.41,41.81 -13.21,59.31 -9.8,17.53 -24.1,33.06 -40.63,45.39 -8.26,6.2 -17.08,11.6 -26.22,16.27 -9.12,4.82 -18.55,8.82 -28.04,11.91 -9.48,3.09 -19.04,5.26 -28.41,6.43 -9.37,1.29 -18.57,1.75 -27.35,1.02 13.88,31.6 16.94,65.2 10.92,96.1 -3.02,15.45 -8.31,30.22 -15.72,43.74 -7.4,13.55 -16.95,25.61 -28.47,36.45 -9.76,9.06 -20.98,16.85 -33.66,22.99 -6.35,3 -13.04,5.86 -20.11,8.28 -7.07,2.4 -14.51,4.36 -22.34,5.83 -51.43,7.06 -82.36,-5.81 -106.17,-26.74 -23.11,-20.45 -33.01,-49.26 -27.14,-75.06 2.93,-12.89 9.82,-25.02 20.84,-34.96 5.51,-4.92 12.04,-9.49 19.64,-12.97 7.61,-3.48 16.25,-6.2 25.91,-7.99 -16,24.17 -4.7,58.8 27.93,70.26 8.16,2.77 16.94,2.1 25.25,-1.5 8.3,-3.59 16.15,-10.03 22.45,-18.37 6.28,-8.33 11,-18.56 12.95,-29.73 1.95,-11.09 1.11,-23.18 -3.88,-35.31 -9.25,-22.38 -28.25,-39.6 -51.98,-50.2 -11.88,-5.42 -24.86,-8.72 -38.29,-10.23 -13.41,-1.49 -27.28,-1.29 -40.78,1.18 -26.94,5.35 -52.62,18.06 -70.56,40.89 -18.02,22.62 -28.49,53.7 -26.19,94.99 2.76,50.02 21.8,92.76 50.38,124.64 14.33,15.95 30.99,28.67 49.59,38.46 9.3,4.92 19.07,8.98 29.25,12.06 10.19,3.08 20.77,5.11 31.82,6.56 61.7,6.92 119.13,-19 182.79,-77.84 12.4,-11.72 23.69,-22.54 34.02,-33.52 10.34,-10.92 19.75,-21.71 28.48,-32.43 17.48,-21.09 32.21,-41.73 46.4,-62.66 14.21,-21.06 27.88,-41.53 43.52,-62.84 7.83,-10.63 16.15,-21.37 25.32,-32.3 9.17,-10.93 19.17,-21.63 30.38,-32.72 9.98,-9.83 20.39,-19.14 31.21,-27.81 10.82,-8.75 22.01,-16.3 33.59,-23.41 11.58,-7.03 23.51,-13.32 35.78,-18.75 12.25,-5.28 24.81,-9.48 37.65,-12.84 51.29,-13.56 106.94,-9.5 161.65,17.75 28.67,14.75 50.12,32.34 65.67,53.87 15.59,21.34 25.53,45.39 31.4,72.65 6.42,29.88 3.86,62.19 -6.24,91.3 -10.12,29.13 -27.64,54.89 -51.56,72.59 -21.09,15.48 -42.94,24.46 -65.51,26.84 -11.28,1.13 -22.67,0.19 -34.28,-2.43 -11.62,-2.52 -23.39,-7.06 -35.35,-13.77 -14.03,-8.05 -26.35,-17.69 -36.33,-29.03 -9.99,-11.26 -17.67,-23.92 -22.42,-36.91 -4.73,-13.01 -6.56,-26.14 -4.67,-38.85 1.88,-12.66 7.47,-24.79 17.49,-34.97 27.12,-21.3 57.11,-16.46 74.12,0.72 17.18,16.92 21.42,44.97 0.98,69.44 24.9,4.79 42.78,-1.58 54.09,-15.13 11.28,-13.48 15.84,-33.71 12.99,-55.24 -2.85,-21.44 -13.13,-44.54 -31.45,-62.81 -18.31,-17.99 -44.55,-32.29 -78.29,-34.87 -33.67,-3.2 -62.76,3.6 -85.73,15.7 -23.03,12.35 -40.05,31.08 -50.47,52.58 -20.91,43.18 -15.53,98.9 16.4,146.33 -34.59,-19.9 -81.2,-18.62 -116.72,0.7 -17.79,9.7 -32.82,23.4 -42.61,40.88 -9.82,17.61 -14.39,38.67 -11.8,62.58 5.75,-4.06 11.49,-7.9 17.22,-11.12 5.72,-3.23 11.44,-6.11 17.13,-8.69 11.39,-5.13 22.68,-9.02 33.85,-11.83 11.17,-2.52 22.2,-3.98 33.09,-4.58 10.88,-0.57 21.63,-0.47 32.18,0.86 21.11,2.49 41.59,7.11 61.36,13.91 9.9,3.26 19.66,6.78 29.29,10.35 9.64,3.6 19.1,7.63 28.51,11.3 9.4,3.73 18.73,7.22 28,10.53 9.25,3.46 18.47,6.57 27.71,9.13 9.22,2.64 18.52,4.38 27.82,6 9.31,1.51 18.72,2.29 28.3,2.12 38.37,-0.6 78.96,-14.86 128.73,-55.13 13.79,28.79 28.16,51.16 43.57,67.83 15.26,17.22 31.51,29.02 48.69,37.43 8.55,4.35 17.34,7.78 26.37,10.5 9.03,2.74 18.34,4.62 27.72,6.47 9.41,1.75 19.04,2.99 28.85,3.92 9.88,0.82 19.81,1.65 29.82,2.48 10.12,0.73 20.3,1.45 30.57,2.19 10.29,0.73 20.52,2.01 30.85,3.33 10.31,1.42 20.71,2.93 30.92,5.28 10.19,2.39 20.34,5.25 30.35,8.77 5.01,1.77 9.98,3.68 14.9,5.81 4.87,2.24 9.7,4.67 14.46,7.31 9.53,5.27 18.81,11.38 27.77,18.5 8.86,7.3 17.31,15.76 25.32,25.31 4.01,4.78 7.89,9.86 11.63,15.25 3.74,5.43 7.24,11.34 10.65,17.49 12.72,-20.41 17.77,-41.35 16.58,-61.47 -1.19,-20.03 -8.78,-38.87 -20.58,-55.34 -2.95,-4.11 -6.16,-8.06 -9.61,-11.83 -3.5,-3.66 -7.23,-7.14 -11.15,-10.39 -7.84,-6.53 -16.46,-12.21 -25.57,-16.83 -9.06,-4.74 -18.82,-7.86 -28.67,-9.99 -9.86,-2.07 -19.89,-2.88 -29.8,-2.23 49.27,-28.81 78.28,-76.67 78.16,-124.69 -0.03,-12.01 -1.86,-24.02 -5.6,-35.72 -1.88,-5.84 -4.21,-11.65 -7.06,-17.26 -2.88,-5.56 -6.24,-10.98 -10.1,-16.25 -7.71,-10.52 -17.41,-20.37 -29.12,-29.21 -11.73,-8.72 -25.61,-16.06 -41.38,-22.17 -15.74,-6.2 -31.2,-8.66 -45.62,-8.85 -14.46,-0.1 -27.86,1.99 -40.11,6.44 -24.5,8.78 -43.66,24.83 -55.52,42.97 -11.87,18.15 -16.51,38.36 -12.18,55.45 2.17,8.53 6.58,16.29 13.52,22.63 6.92,6.43 16.48,11.05 28.72,14.38 -7.81,-30.99 8.13,-54.42 30.91,-62.14 11.35,-3.87 24.33,-3.84 36.43,0.99 12.02,5.04 23.1,15.01 30.69,30.52 9.2,27.21 -0.63,52.85 -20.4,72.11 -9.9,9.64 -22.28,17.67 -36.14,23.46 -13.81,5.66 -29.27,9.55 -45.33,10.52 -6.83,0.41 -13.39,0.35 -19.67,-0.17 -3.14,-0.26 -6.22,-0.63 -9.24,-1.12 -3.04,-0.41 -6.01,-0.93 -8.92,-1.56 -11.63,-2.54 -22.24,-6.83 -31.91,-12.74 -9.64,-6.04 -18.5,-13.14 -26.4,-21.95 -7.9,-8.77 -14.91,-19.02 -21.05,-30.62 -27.94,-51.81 -18.69,-124.33 18.67,-172.56 8.53,-11.02 17.67,-20.96 27.59,-29.76 9.89,-8.67 20.54,-16.09 32.16,-22.27 11.63,-6.18 24.22,-11.08 37.95,-14.6 13.71,-3.39 28.47,-5.14 44.57,-5.52 7.65,-0.16 15.17,0 22.55,0.45 7.35,0.55 14.53,1.5 21.58,2.68 14.09,2.38 27.6,5.89 40.49,10.43 12.79,4.81 24.96,10.63 36.49,17.33 5.76,3.35 11.36,6.92 16.8,10.7 5.4,3.86 10.62,8.01 15.69,12.3 10.12,8.6 19.59,17.96 28.38,27.96 8.81,9.99 16.78,21.05 24.18,32.38 7.38,11.4 14.13,23.27 20.19,35.62 5.99,12.53 11.35,25.45 16.08,38.66 5.3,14.86 9.64,28.93 13.21,42.66 3.52,13.83 6.36,27.13 8.8,40.11 4.86,25.97 8.26,50.41 11.91,75.52 3.68,25.05 8.04,49.89 14.51,76.65 3.21,13.42 7,27.21 11.57,41.51 2.28,7.16 4.77,14.41 7.44,21.88 2.62,7.56 5.47,15.27 8.54,23.15 31.6,80.75 71.93,129.14 130.62,149.62 10.4,3.76 20.92,6.39 31.49,7.98 5.28,0.8 10.57,1.34 15.87,1.62 5.24,0.35 10.45,0.48 15.69,0.34 20.86,-0.5 41.72,-5.13 61.48,-13.14 39.35,-15.89 75.32,-46.36 99.51,-90.08 9.95,-18.02 16.05,-35.23 18.85,-51.5 1.41,-8.13 1.99,-16.03 1.83,-23.67 -0.2,-7.58 -1.18,-14.85 -2.8,-21.84 -3.25,-13.99 -9.14,-26.8 -16.93,-38.22 -7.8,-11.41 -17.81,-21.01 -28.82,-29.19 -5.53,-4.07 -11.34,-7.72 -17.36,-10.94 -6.02,-3.22 -12.37,-5.79 -18.75,-8.01 -12.79,-4.41 -25.99,-6.97 -38.89,-7.52 -25.96,-0.84 -50.7,6.59 -68.77,22.7 -19.47,17.4 -24.19,42.02 -20.12,62.41 2.04,10.21 6.33,19.37 12.27,26.18 5.84,6.96 13.33,11.59 21.97,12.53 34.49,3.71 59.78,-22.58 55.83,-51.18 8,5.69 14.5,12.04 19.74,18.61 5.26,6.55 9.26,13.33 12.08,20.16 5.66,13.64 6.62,27.5 3.55,40.51 -6.09,25.95 -27.36,47.32 -57.1,55.69 -15.33,4.35 -31.43,6.06 -48.91,2.91 -8.69,-1.66 -18.02,-4.11 -27.68,-8.22 -9.71,-4.05 -19.8,-9.72 -30.62,-16.91 -12.87,-9.38 -23.49,-19.85 -32.1,-31.13 -8.64,-11.2 -15.47,-22.88 -20.31,-35.29 -11.37,-29.4 -12.85,-60.97 -4.82,-91.46 8.01,-30.41 25.4,-59.33 51.69,-81.77 -8.25,-3.16 -16.37,-7.48 -24.22,-12.79 -7.82,-5.36 -15.59,-11.28 -22.77,-18.22 -7.22,-6.89 -13.99,-14.58 -20.13,-22.88 -6.1,-8.36 -11.79,-16.91 -16.53,-26.13 -9.54,-18.29 -15.72,-38.46 -16.93,-58.56 -1.23,-20.03 2.67,-40.32 13.85,-59.17 4.44,5.76 9.03,11.12 13.61,16.42 4.58,5.32 9.24,10.37 13.99,15.18 9.5,9.63 19.34,18.28 29.49,26.14 10.02,8.09 20.36,15.39 30.96,22.04 10.61,6.63 21.48,12.62 32.38,18.47 10.95,5.74 22.12,11 33.44,15.92 11.34,4.88 22.57,9.88 34.02,14.43 11.38,4.66 22.99,8.9 34.35,13.49 11.39,4.59 22.73,9.15 34.01,13.69 5.63,2.33 11.25,4.66 16.85,6.98 5.51,2.47 11,4.96 16.44,7.51 10.88,5.1 21.58,10.4 31.99,16.04 10.41,5.64 20.3,11.97 29.94,18.56 9.58,6.65 18.86,13.64 27.45,21.43 8.56,7.85 16.61,16.26 24.03,25.35 7.42,9.09 14.26,18.8 20.08,29.61 11.71,21.55 20.7,45.84 24.91,74.85 14.49,-1.01 28.26,-0.8 41.38,0.48 13.16,1.22 25.33,3.91 37.09,7.28 11.71,3.43 22.84,7.76 33.44,12.88 10.45,5.29 20.37,11.33 29.87,18 38.08,26.6 67.79,64.29 96.03,103.81 13.74,20.01 27.62,40.25 41.61,60.63 13.87,20.38 28.7,40.01 44.47,59.07 7.94,9.47 16.41,18.55 25.29,27.36 8.77,8.91 18.1,17.41 28.16,25.43 5.02,4.02 10.22,7.91 15.62,11.67 5.3,3.85 10.8,7.57 16.5,11.16 11.42,7.16 23.71,13.78 37.01,19.79 -31.8,30.06 -75.72,33.68 -115.43,23.19 -20.1,-5.12 -39.41,-13.7 -55.92,-24.81 -16.71,-10.96 -30.98,-24.14 -40.67,-38.92 -16.11,30.67 -40.45,54.05 -68.28,68.58 -27.73,14.39 -59.41,20.47 -90.28,15.6 -12.98,-2.14 -26.18,-5.92 -39.02,-11.88 -12.88,-5.92 -25.15,-14.25 -37.46,-24.42 -9.46,-8.92 -17.06,-17.66 -23.13,-26.27 -6.15,-8.52 -10.9,-16.77 -14.31,-25.02 -6.85,-16.46 -8.61,-32.68 -7.94,-48.38 1.45,-30.72 17.77,-56.42 41.63,-67.98 11.92,-5.78 25.74,-8.03 40.44,-5.68 14.5,2.55 29.82,9.78 44.77,22.54 -14.49,1.33 -26.72,9.62 -33.88,21.62 -3.58,6 -5.9,12.93 -6.6,20.39 -0.67,7.42 0.21,15.44 2.96,23.74 5.51,16.56 24.59,25.25 45.36,24.79 20.69,-0.48 43.61,-10.49 56.3,-33.37 11.78,-21.27 13.64,-47.12 6.84,-72.03 -3.35,-12.48 -8.63,-24.92 -15.78,-36.4 -7.25,-11.36 -16.21,-21.9 -26.51,-30.96 -10.21,-9.15 -22.16,-16.36 -34.93,-21.53 -12.83,-5.11 -26.46,-8.22 -40.91,-8.18 -28.94,0.08 -59.95,11.52 -90.63,38.89 -37.24,33.22 -59.05,75.1 -65.96,117.14 -1.71,10.51 -2.49,21.05 -2.3,31.49 0.16,10.48 1.13,21.04 3.15,31.32 2,10.31 4.98,20.43 8.99,30.25 3.94,9.9 8.7,19.73 14.64,29.08 33.02,52.67 89.19,81.28 174.97,94.17 16.67,2.57 32.46,4.37 47.56,5.52 14.92,1.32 29.13,2.01 42.87,2.2 13.75,0.2 27.05,-0.13 40,-0.7 12.86,-0.49 25.45,-1.29 38,-2.23 50.38,-3.77 99.23,-9.5 161.94,-2.24 55.59,6.69 108.66,24.52 150.91,56.54 42.61,31.67 74.08,77.75 86.86,137.51 3.2,15.79 4.65,30.64 4.49,44.71 -0.07,14.01 -2.31,27.53 -5.68,40.21 -6.97,25.49 -19.47,48.2 -37.29,69.86 -19.33,23.62 -46.19,41.75 -75.26,52 -14.53,5.13 -29.62,8.3 -44.6,9.2 -7.49,0.45 -14.92,0.32 -22.31,-0.39 -7.44,-0.68 -14.78,-1.96 -21.95,-3.9 -25.34,-6.78 -45.88,-18.33 -61.83,-34.48 -7.91,-8.13 -14.34,-17.59 -19.47,-28.33 -5.27,-10.65 -9.06,-22.69 -11.26,-36.23 -2.45,-15.98 -2.61,-31.62 0.05,-46.5 2.6,-14.84 7.71,-28.73 14.92,-40.54 14.13,-23.43 37.08,-38.83 65.71,-35.99 33.52,7.95 48.43,34.41 45.62,58.42 -2.52,23.98 -21.83,44.78 -53.7,44.05 11.77,22.45 27.87,32.48 45.55,32.87 17.57,0.42 36.23,-8.62 51.29,-24.27 15,-15.6 26.59,-38 29.52,-63.74 2.68,-25.54 -2.56,-54.94 -21.53,-82.96 -4.68,-7.05 -9.59,-13.53 -14.7,-19.45 -5.14,-5.9 -10.65,-11.14 -16.21,-15.89 -11.14,-9.47 -22.85,-16.76 -34.77,-21.96 -24.22,-10.16 -49.24,-11.97 -72.59,-6.69 -46.74,10.53 -86.97,49.49 -104.26,104.09 -1.53,-9.83 -4.5,-19.47 -8.67,-28.66 -4.09,-9.25 -9.84,-17.71 -16.26,-25.63 -6.48,-7.89 -13.86,-15.1 -21.95,-21.3 -8.25,-6.1 -17.14,-11.23 -26.41,-15.2 -9.29,-3.96 -18.93,-6.77 -28.74,-8.14 -9.93,-1.29 -19.96,-1.21 -29.87,0.43 -19.82,3.27 -39.09,12.81 -56.17,29.77 54.31,15.52 87.78,46.62 110.9,82.12 22.6,36.02 34.79,76.61 46.39,115.36 2.93,9.67 5.98,19.17 9.21,28.45 3.06,9.4 6.37,18.54 10.13,27.36 7.7,17.54 16.4,34.2 28.64,48.95 3.06,3.7 6.33,7.28 9.82,10.74 3.39,3.52 7.02,6.92 10.91,10.2 7.78,6.55 16.6,12.62 26.67,18.15 20.07,11.11 44.51,20.39 75.99,27.21 -14.2,28.87 -22.27,53.83 -25.98,76.4 -1.95,11.33 -2.71,22.01 -2.43,32.18 0.3,10.16 1.63,19.82 3.5,29.24 3.84,18.79 11.59,35.92 20.47,52.87 4.54,8.44 9.62,16.72 15.05,24.96 5.39,8.25 10.79,16.59 16.55,24.9 5.68,8.34 11.69,16.67 17.39,25.23 5.62,8.59 11.22,17.3 16.62,26.22 11.04,17.74 20.08,36.66 27.25,56.64 3.65,9.98 6.02,20.45 7.96,31.15 1.8,10.74 3.05,21.76 2.83,33.25 -0.59,23.01 -4.65,47.34 -15.71,73.39 23.9,-2.77 43.4,-11.88 58.37,-25.33 15.14,-13.48 24.96,-31.11 30.47,-50.6 5.64,-19.51 5.85,-40.57 1.64,-60.56 -1.05,-5 -2.38,-9.91 -3.99,-14.72 -1.66,-4.8 -3.72,-9.44 -5.99,-13.94 -4.57,-8.99 -10.23,-17.33 -16.94,-24.66 53.39,20.52 108.9,13.35 146.32,-16.66 18.64,-14.97 33.04,-35.73 39.97,-60.96 6.68,-25.12 6.75,-55 -3.88,-87.13 -2.58,-8.06 -5.69,-15.52 -9.23,-22.42 -3.59,-6.87 -7.8,-13.1 -12.23,-18.79 -8.91,-11.37 -19.16,-20.44 -30.04,-27.35 -22.07,-13.7 -46.71,-18.62 -68.28,-16.58 -21.61,2.04 -40.31,11.01 -50.93,25.03 -5.31,7.01 -8.61,15.29 -9.2,24.66 -0.31,4.69 0.1,9.63 1.19,14.87 1.02,5.26 2.78,10.8 5.38,16.58 19.29,-25.41 47.58,-27.55 67.89,-14.58 10.06,6.47 18.43,16.52 21.9,29.11 3.53,12.55 2.74,27.4 -4.62,42.98 -7.69,12.05 -18.21,20.2 -30.15,24.87 -11.95,4.68 -25.18,5.84 -38.94,4.14 -13.72,-1.73 -27.76,-6.39 -40.96,-13.6 -13.22,-7.21 -25.49,-17.01 -36.44,-28.9 -9.2,-10.16 -16.24,-20.62 -21.29,-31.39 -5.31,-10.65 -8.62,-21.61 -10.06,-32.84 -0.72,-5.62 -0.98,-11.31 -0.8,-17.05 0.18,-5.74 0.62,-11.48 1.58,-17.3 1.9,-11.64 5.52,-23.5 10.72,-35.52 5.98,-13.65 14.17,-26.14 24.17,-37.3 10.03,-11.16 21.9,-21 34.96,-29.19 26.12,-16.37 57.02,-26.1 87.54,-26.52 28.02,-0.46 53.66,3.85 77.89,14.29 12.05,5.26 23.94,11.96 35.05,20.59 11.1,8.64 21.81,19.03 32.16,31.38 38.91,47.2 55.26,100.62 53.56,153.7 -0.42,13.28 -1.68,26.47 -4.12,39.62 -2.54,13.18 -5.99,26.23 -10.25,39.1 -8.32,25.67 -20.82,50.82 -35.46,74.66 -16.31,26.74 -33.9,48.86 -51.01,68.82 -8.6,9.99 -17.19,19.46 -25.73,28.74 -8.65,9.23 -17.21,18.36 -25.94,27.67 -34.31,36.83 -67.58,75.98 -101.39,134.59 -43.45,75.04 -56.12,136.72 -35.5,195.41 6.99,20.96 17.91,39.52 31.54,55.53 13.36,16.01 29.79,29.44 48.48,39.9 18.79,10.43 39.36,17.9 61.71,21.74 22.31,3.84 46.19,4.05 70.84,-0.15 20.31,-3.45 37.62,-9.43 52.11,-17.38 14.33,-7.95 25.84,-17.87 34.8,-29.12 8.92,-11.26 15.46,-23.85 19.39,-37.05 3.82,-13.2 5.34,-27.01 4.86,-40.72 -0.29,-6.85 -0.89,-13.68 -2.28,-20.38 -1.37,-6.7 -3.2,-13.27 -5.45,-19.65 -4.51,-12.74 -10.71,-24.67 -18.29,-35.08 -15.67,-20.82 -36.75,-35.55 -60.66,-39.63 -25.73,-4.38 -47.94,7.27 -61.36,23.15 -6.71,7.97 -11.21,17.04 -12.84,25.92 -1.64,8.9 -0.75,17.65 3.93,24.99 18.53,29.29 54.83,32.68 74.77,11.76 1.07,19.61 -3.32,36.11 -10.46,49.04 -7.2,12.94 -17.48,22.32 -29.38,28.02 -23.96,11.42 -54.06,8.11 -79.27,-9.92 -12.92,-9.26 -24.24,-20.79 -32.63,-36.44 -8.84,-15.62 -14.58,-35.35 -16.78,-61.26 -0.67,-15.91 0.91,-30.75 4.38,-44.51 3.33,-13.74 8.24,-26.36 14.92,-37.87 15.9,-27.22 39.71,-48.06 68.52,-60.78 28.77,-12.68 62.23,-17.11 96.17,-10.54 -5.4,-16.82 -6.57,-36.24 -5.03,-56.08 1.66,-19.85 7.35,-40.38 15.5,-59.21 8.35,-18.87 20.13,-36.25 35.21,-49.75 15.03,-13.48 33.19,-23.05 54.95,-26.06 -3.25,14.07 -6.09,27.9 -7.58,41.3 -1.62,13.43 -2.05,26.48 -2.09,39.36 -0.06,12.89 0.69,25.51 2.13,37.95 0.7,6.22 1.6,12.38 2.61,18.51 0.89,6.15 1.93,12.26 3.1,18.34 2.34,12.15 5.2,24.16 8.42,36.07 3.2,11.92 6.32,23.81 9.89,35.59 3.47,11.81 7.35,23.53 10.89,35.27 3.5,11.77 6.98,23.48 10.45,35.14 7.11,23.35 12.54,46.74 16.78,70.05 2.17,11.64 3.45,23.31 4.21,34.95 0.76,11.62 0.92,23.24 0.34,34.8 -1.42,23.18 -6.38,46.16 -15.37,68.72zm-1356.17 -1569.03c-87.58,13.87 -183.49,30.04 -283.92,48.37 -277.05,50.56 -588.41,117.54 -872.42,212.95 -284.01,95.42 -540.66,219.29 -766.06,371.65 -44.26,29.91 -87.31,60.92 -129.03,93.09l-26.11 -0.34c-282.9,-3.57 -485.53,-2.92 -631.93,0.97 -65.95,1.75 -120.49,4.15 -168.67,6.6 -7.32,14.23 -14.48,28.56 -21.44,42.98l-2.2 4.59c35.4,-1.57 74.31,-2.47 117.15,-2.46 307.88,0.09 818.39,47.49 1199.25,156.28 380.86,108.77 632.05,278.94 789.35,483.13 157.31,204.19 220.72,442.39 198.93,698.88 -21.78,256.5 -128.78,531.29 -276.78,781.42 -148.01,250.12 -337.03,475.6 -481.08,630.25 -21.04,22.59 -41.12,43.67 -60.22,63.48 98.95,14.99 199.11,22.56 299.5,22.66 148.49,-0.14 296.49,-16.65 440.8,-49.28 144.29,-32.73 284.64,-82.17 418.05,-146.2 66.58,-32.27 131.4,-68.23 194.08,-107.64 15.84,-9.59 31.07,-20.13 46.61,-30.2 7.8,-4.98 15.29,-10.43 22.93,-15.66l22.83 -15.81 22.44 -16.37c7.44,-5.52 15.07,-10.77 22.34,-16.51l22.04 -16.91c3.67,-2.82 7.38,-5.59 11.01,-8.47l10.81 -8.72c231.99,-184.51 421.17,-422.34 549.97,-688.77 47.56,-99.1 87.06,-202.03 117.65,-307.55 -11.01,-27.58 -22.5,-54.85 -34.43,-81.79 -129.35,-292.38 -308.52,-546.69 -620.12,-766.98 -311.6,-220.29 -755.62,-406.55 -1159.21,-503.56 -116.87,-28.1 -230.32,-48.69 -339.44,-63.88 150.94,-159.19 336.86,-272.28 504.87,-359.19 183.85,-95.12 346.26,-158.93 463.64,-201.84 117.38,-42.92 189.75,-64.97 267.25,-86.69 69.43,-19.47 142.97,-38.68 222.95,-56.05l-16.99 -13.03c-5.72,-4.52 -11.65,-8.72 -17.55,-13 -93.94,15.79 -166.42,30.15 -301.9,61.57 -139.19,32.26 -344.89,82.53 -588.3,181.12 -243.41,98.58 -524.52,245.48 -733.15,431.34 -11.22,9.99 -22.23,20.09 -33.02,30.3 -110.32,-9.02 -214.74,-13.5 -312.05,-16.03 21.12,-16.35 42.49,-32.32 64.05,-47.88l229.12 0c16.93,-15.62 34.23,-30.86 51.84,-45.74l-214.77 -0.38 4.7 -3.16c31.71,-21.2 63.69,-41.52 95.87,-61.01l209.08 0 17.99 -10.75c12.16,-8.9 24.43,-17.65 36.77,-26.24l-200.1 -0.39c34.85,-19.8 69.84,-38.66 104.87,-56.68l184.65 0c17.01,-10.59 34.13,-20.91 51.31,-30.96l-173.36 -0.31c35.65,-17.31 71.27,-33.76 106.73,-49.43l158.3 0c16.77,-8.85 33.55,-17.44 50.31,-25.8l-148.06 -0.29c36.22,-15.21 72.19,-29.62 107.79,-43.32l134.29 0c14.83,-6.69 29.61,-13.19 44.3,-19.49l-126.34 -0.22c45.33,-16.76 89.92,-32.41 133.49,-47.08l112.45 0 7.46 -2.79c10.39,-3.87 20.71,-7.63 30.94,-11.29l-107.87 -0.19c10.76,-3.53 21.46,-7 32.07,-10.41 33.59,-10.8 66.43,-21.05 98.64,-30.79l109.62 0c7.79,-2.38 15.52,-4.72 23.19,-7l-108.92 -0.16c37.08,-11.04 73.34,-21.43 109,-31.24l109.65 0c7.12,-1.81 14.16,-3.57 21.14,-5.29l-110.59 -0.22c26.74,-7.25 53.14,-14.19 79.31,-20.84l115.75 0 20.13 -4.36 -117.61 -0.25c123.61,-30.96 242.05,-55.82 364.03,-78.52 75.23,-14 151.78,-27.17 224.83,-39.26l-17.69 -12.25 -6.79 -4.71zm-1732.63 108.61c0,-73.7 -59.74,-133.45 -133.44,-133.45 -73.7,0 -133.45,59.75 -133.45,133.45 0,73.7 59.75,133.45 133.45,133.45 73.7,0 133.44,-59.75 133.44,-133.45zm-175.51 -156.69c-1.61,-12.31 2.12,-46.9 2.12,-46.9 0,0 16.52,30.62 19.69,42.62 1.13,4.3 -0.54,7.33 -2.72,9.37 -3.48,3.26 -8.58,4.26 -13.04,2.56 -2.79,-1.06 -5.48,-3.24 -6.05,-7.65zm62.33 317.65c3.16,12.01 19.69,42.63 19.69,42.63 0,0 3.73,-34.6 2.11,-46.91 -0.57,-4.4 -3.26,-6.58 -6.05,-7.65 -4.45,-1.69 -9.56,-0.69 -13.04,2.57 -2.18,2.03 -3.85,5.07 -2.71,9.36zm-176.95 -118.9c-12.31,1.61 -46.9,-2.11 -46.9,-2.11 0,0 30.62,-16.53 42.62,-19.69 4.3,-1.13 7.33,0.53 9.37,2.71 3.26,3.48 4.26,8.59 2.56,13.04 -1.06,2.79 -3.24,5.48 -7.65,6.05zm317.65 -62.32c12,-3.16 42.63,-19.69 42.63,-19.69 0,0 -34.59,-3.73 -46.9,-2.12 -4.41,0.57 -6.59,3.26 -7.66,6.05 -1.7,4.45 -0.69,9.56 2.57,13.04 2.04,2.19 5.07,3.85 9.36,2.72zm-301.5 -60.79c-9.84,-7.57 -31.67,-34.67 -31.67,-34.67 0,0 33.33,9.97 44.06,16.23 3.84,2.24 4.81,5.56 4.71,8.54 -0.16,4.76 -3.07,9.08 -7.41,11.03 -2.73,1.22 -6.17,1.58 -9.69,-1.13zm268.69 180.54c10.72,6.26 44.06,16.23 44.06,16.23 0,0 -21.83,-27.11 -31.67,-34.67 -3.52,-2.71 -6.97,-2.35 -9.69,-1.13 -4.35,1.94 -7.25,6.26 -7.41,11.03 -0.11,2.98 0.87,6.3 4.71,8.54zm-209.2 41.05c-7.57,9.84 -34.67,31.67 -34.67,31.67 0,0 9.97,-33.34 16.22,-44.06 2.25,-3.84 5.57,-4.81 8.55,-4.71 4.76,0.16 9.08,3.06 11.02,7.41 1.23,2.72 1.59,6.17 -1.12,9.69zm180.54 -268.69c6.26,-10.72 16.22,-44.06 16.22,-44.06 0,0 -27.1,21.83 -34.67,31.67 -2.7,3.52 -2.34,6.96 -1.12,9.69 1.94,4.35 6.26,7.25 11.03,7.4 2.97,0.1 6.3,-0.86 8.54,-4.7zm-171.74 -17.11c-4.01,-11.75 -7.2,-46.4 -7.2,-46.4 0,0 22.26,26.75 27.74,37.89 1.95,3.98 0.92,7.29 -0.81,9.72 -2.77,3.88 -7.58,5.87 -12.28,5.08 -2.94,-0.49 -6.01,-2.09 -7.45,-6.29zm123.96 299.03c5.47,11.14 27.74,37.89 27.74,37.89 0,0 -3.2,-34.65 -7.21,-46.4 -1.44,-4.21 -4.51,-5.81 -7.45,-6.3 -4.7,-0.78 -9.5,1.21 -12.27,5.09 -1.74,2.43 -2.77,5.73 -0.81,9.72zm-196.98 -81.53c-11.74,4.02 -46.39,7.2 -46.39,7.2 0,0 26.74,-22.26 37.88,-27.73 3.99,-1.95 7.3,-0.92 9.73,0.81 3.88,2.77 5.87,7.57 5.08,12.27 -0.49,2.94 -2.09,6.01 -6.3,7.45zm299.04 -123.95c11.14,-5.48 37.89,-27.74 37.89,-27.74 0,0 -34.65,3.19 -46.4,7.21 -4.21,1.43 -5.81,4.51 -6.3,7.44 -0.79,4.71 1.21,9.51 5.09,12.28 2.43,1.73 5.73,2.76 9.72,0.81zm-307.57 0.07c-11.15,-5.46 -37.91,-27.71 -37.91,-27.71 0,0 34.66,3.17 46.4,7.18 4.21,1.44 5.82,4.5 6.31,7.45 0.79,4.69 -1.2,9.5 -5.08,12.27 -2.43,1.74 -5.73,2.77 -9.72,0.81zm299.1 123.81c11.74,4.01 46.4,7.18 46.4,7.18 0,0 -26.76,-22.25 -37.9,-27.72 -3.99,-1.96 -7.3,-0.92 -9.72,0.82 -3.89,2.76 -5.87,7.57 -5.08,12.27 0.49,2.95 2.09,6.01 6.3,7.45zm-196.93 81.63c-5.48,11.14 -27.72,37.9 -27.72,37.9 0,0 3.17,-34.66 7.18,-46.4 1.44,-4.21 4.5,-5.81 7.44,-6.31 4.71,-0.78 9.51,1.21 12.28,5.09 1.73,2.43 2.77,5.73 0.82,9.72zm123.8 -299.1c4,-11.75 7.18,-46.41 7.18,-46.41 0,0 -22.25,26.76 -27.72,37.91 -1.96,3.99 -0.92,7.29 0.81,9.72 2.77,3.88 7.58,5.87 12.28,5.08 2.94,-0.49 6.01,-2.1 7.45,-6.3zm-170.96 16.62c-6.21,-10.76 -15.99,-44.16 -15.99,-44.16 0,0 26.99,21.98 34.5,31.86 2.69,3.54 2.31,6.98 1.07,9.69 -1.97,4.34 -6.3,7.22 -11.07,7.36 -2.98,0.08 -6.3,-0.91 -8.51,-4.75zm179.07 269.65c7.51,9.89 34.49,31.87 34.49,31.87 0,0 -9.78,-33.4 -15.98,-44.16 -2.22,-3.84 -5.54,-4.83 -8.52,-4.75 -4.76,0.14 -9.1,3.01 -11.07,7.35 -1.23,2.71 -1.61,6.16 1.08,9.69zm-208.97 -42.18c-10.75,6.2 -44.15,15.98 -44.15,15.98 0,0 21.97,-26.98 31.86,-34.49 3.54,-2.69 6.98,-2.31 9.69,-1.07 4.34,1.96 7.22,6.3 7.35,11.06 0.08,2.98 -0.9,6.31 -4.75,8.52zm269.67 -179.07c9.88,-7.51 31.86,-34.5 31.86,-34.5 0,0 -33.4,9.79 -44.16,15.99 -3.85,2.21 -4.83,5.53 -4.75,8.51 0.13,4.77 3.01,9.1 7.35,11.07 2.71,1.24 6.16,1.61 9.7,-1.07zm-301.83 59.14c-11.99,-3.23 -42.52,-19.92 -42.52,-19.92 0,0 34.61,-3.54 46.91,-1.86 4.4,0.6 6.56,3.3 7.62,6.09 1.67,4.47 0.64,9.57 -2.63,13.03 -2.05,2.16 -5.1,3.81 -9.38,2.66zm317.3 64.06c12.3,1.68 46.92,-1.86 46.92,-1.86 0,0 -30.53,-16.69 -42.52,-19.93 -4.29,-1.15 -7.33,0.51 -9.38,2.67 -3.28,3.46 -4.31,8.56 -2.63,13.02 1.05,2.79 3.21,5.5 7.61,6.1zm-177.59 117.93c-3.23,11.99 -19.92,42.52 -19.92,42.52 0,0 -3.54,-34.62 -1.86,-46.92 0.59,-4.4 3.3,-6.56 6.09,-7.61 4.47,-1.68 9.56,-0.65 13.03,2.63 2.16,2.05 3.81,5.09 2.66,9.38zm64.06 -317.31c1.68,-12.29 -1.86,-46.92 -1.86,-46.92 0,0 -16.7,30.54 -19.93,42.52 -1.15,4.3 0.5,7.34 2.66,9.39 3.47,3.28 8.57,4.31 13.03,2.63 2.79,-1.05 5.5,-3.21 6.1,-7.62zm-165.22 49.87c-8.21,-9.32 -24.41,-40.12 -24.41,-40.12 0,0 30.8,16.2 40.12,24.41 3.33,2.93 3.63,6.37 2.97,9.28 -1.07,4.65 -4.75,8.33 -9.4,9.4 -2.91,0.67 -6.35,0.36 -9.28,-2.97zm228.89 228.89c9.31,8.21 40.11,24.41 40.11,24.41 0,0 -16.19,-30.81 -24.4,-40.12 -2.93,-3.34 -6.38,-3.65 -9.29,-2.98 -4.64,1.08 -8.32,4.75 -9.4,9.4 -0.67,2.91 -0.36,6.35 2.98,9.29zm-213.18 0c-9.32,8.21 -40.12,24.41 -40.12,24.41 0,0 16.2,-30.81 24.41,-40.12 2.93,-3.34 6.37,-3.65 9.28,-2.98 4.65,1.08 8.33,4.75 9.4,9.4 0.66,2.91 0.36,6.35 -2.97,9.29zm228.89 -228.89c8.21,-9.32 24.4,-40.12 24.4,-40.12 0,0 -30.8,16.2 -40.11,24.41 -3.34,2.93 -3.65,6.37 -2.98,9.28 1.08,4.65 4.76,8.33 9.4,9.4 2.91,0.67 6.36,0.36 9.29,-2.97zm-284.16 117.7c-12.39,-0.79 -45.62,-11.11 -45.62,-11.11 0,0 33.23,-10.32 45.62,-11.11 4.44,-0.28 7.09,1.94 8.67,4.47 2.53,4.04 2.53,9.24 0,13.28 -1.58,2.53 -4.23,4.75 -8.67,4.47zm323.71 0c12.39,-0.79 45.62,-11.11 45.62,-11.11 0,0 -33.23,-10.32 -45.62,-11.11 -4.43,-0.28 -7.09,1.94 -8.67,4.47 -2.52,4.04 -2.52,9.24 0,13.28 1.58,2.53 4.24,4.75 8.67,4.47zm-150.74 150.74c-0.79,12.39 -11.11,45.62 -11.11,45.62 0,0 -10.33,-33.23 -11.12,-45.62 -0.28,-4.43 1.94,-7.09 4.47,-8.67 4.04,-2.53 9.25,-2.53 13.29,0 2.53,1.58 4.75,4.24 4.47,8.67zm0 -323.71c-0.79,-12.39 -11.11,-45.62 -11.11,-45.62 0,0 -10.33,33.23 -11.12,45.62 -0.28,4.44 1.94,7.09 4.47,8.67 4.04,2.53 9.25,2.53 13.29,0 2.53,-1.58 4.75,-4.23 4.47,-8.67zm1553.98 3285.52c16.73,-24.55 33.12,-50.09 49.07,-76.69 96.19,-160.44 176.5,-359.46 227.92,-559.19l216.74 0.09c-14.36,148.8 -44.87,296.9 -93.65,423.33l-400.08 212.46zm330.52 -928.33c4.41,-42.88 7.04,-84.86 7.75,-125.5 1.46,-84.83 -5.47,-163.85 -20.31,-238.13l124.05 -5.61c25.78,84.81 43.93,177.6 53.54,281.02 2.55,27.41 4.48,55.57 5.82,84.3l-170.85 3.92zm-89.49 -592.73c-36.35,-74.82 -82.43,-144.93 -137.57,-211.96l98.21 0.34c15.57,18.48 30.56,37.26 45.02,56.34l78.6 115.83c8.31,13.82 16.34,27.84 24.12,42.07l-108.38 -2.62zm-260.88 -343.45c-50.62,-47.79 -106.3,-93.94 -167.26,-137.88l85.41 -0.6c62.75,42.51 119.35,86.86 170.76,133.24l-88.91 5.24zm-309.68 -230.6c-51.99,-30.53 -107.08,-59.58 -165.36,-86.89l47.07 -8.92c46.69,20.55 104.81,48.55 134.44,63.68 29.63,15.14 46.25,24.78 62.11,33.38l-78.26 -1.25zm-307.57 -147.48c-52.67,-20.35 -107.59,-39.36 -164.82,-56.89l33.96 -11.27c54.83,17.19 126.27,40.44 179.19,60.22l-48.33 7.94zm-318.62 -99.12c-56.18,-13.82 -113.78,-26.41 -172.06,-37.82l17.11 -17.5c62.59,11.64 133.07,27.81 196.43,44.29l-41.48 11.03zm1775.31 -263.64l-128.53 230.47 92.73 4.85 46.7 16.19 -75.34 11.17 20.21 11.92c3.32,6.05 2.89,22.93 -5.03,26 -178.48,10.91 -348.01,-2.39 -521.03,-32.73l-268.49 -65.8 -0.69 -3.75 -6.98 0.85 -55.66 -15.77c7.1,9.38 -6.43,42.02 -17.56,49.7 -69.21,-3.81 -146.35,-25.52 -194.08,-51.66 -18.59,-5.4 -9.89,-50.18 7.16,-72.95l-189.05 -68.28c-36.56,-13.12 -66.06,-31.54 -94.61,-55.74 -14.79,-18.33 -12.68,-32.45 0.19,-43.17 11.84,-9.84 35.6,-12 58.11,-21.09 29.04,-20.01 77.17,-34.89 121.37,-21.99l324.56 94.92 11.75 -11.58c17.2,-2.44 11.62,13.42 17.43,20.12l280.41 82.01 158.88 -10.74 51.47 -27.62c21.48,-5.62 47.57,-32.9 64.45,-16.87 -8.18,22.27 -24.74,42.8 -53.37,63.42l-86.76 19.09 11.25 9.88 -8.52 3.41 72.45 22c111.68,-22.34 178.36,-101.95 267.54,-152.91 9.63,-8.36 17.65,-14.41 34.78,-13.3l64.26 19.95zm-2443.32 2815.18c54.98,-32.89 111.08,-73.79 170.16,-121.98 180.33,-147.1 388.34,-362 555.36,-597.06 167.01,-235.06 293.04,-490.28 318.12,-718.93 25.09,-228.64 -50.77,-430.71 -163.17,-584.15 -112.39,-153.43 -261.32,-258.22 -407.62,-335.84 -146.31,-77.62 -289.99,-128.08 -425.61,-163.96 -135.62,-35.87 -263.19,-57.16 -378.11,-72.99 -114.93,-15.83 -217.21,-26.19 -320.05,-32.68 -102.83,-6.49 -206.21,-9.1 -295.7,-6.42 -15.05,0.44 -29.7,1.04 -44,1.79 -7.41,16.18 -14.6,32.46 -21.57,48.83 9.34,-0.4 18.8,-0.74 28.37,-1.01 143.07,-4.14 310.52,6.11 497.78,32.4 47.26,6.64 95.79,14.29 145.33,23.37 -82.88,82.92 -157.76,172.23 -223.18,268.48 -146.64,215.76 -245.78,466.42 -269.41,710.06 -23.63,243.66 28.24,480.3 97.38,680.11 69.14,199.83 155.56,362.82 254.8,519.53 18.18,28.71 35,58.71 52.34,87.97l3.88 3.11 10.81 8.72c3.62,2.88 7.34,5.65 11,8.48l22.05 16.9c7.27,5.74 14.9,10.99 22.34,16.51l22.43 16.37 22.84 15.81c7.63,5.24 15.13,10.68 22.93,15.66 15.53,10.07 30.77,20.61 46.6,30.2 62.68,39.41 127.5,75.37 194.09,107.64 16.5,7.92 33.11,15.62 49.81,23.08zm-221.01 -2504.19c31.93,7.23 64.19,15.14 96.7,23.82l-119.05 -0.21c7.37,-7.92 14.82,-15.79 22.35,-23.61zm247.02 69.2c23.63,8.01 47.35,16.49 71.14,25.46 -57.7,103.96 -93.48,212.88 -102.39,323.11 -18.65,230.62 80.2,467.03 205.96,648.2 97.39,140.32 210.92,247.49 343.01,359.31 -19.65,26.85 -39.37,52.36 -58.54,76.51 -30.26,38.11 -59.17,72.86 -88.08,105.95 -3.74,-4.05 -7.46,-8.12 -11.19,-12.22l-813.34 0c-33.82,-69.55 -63.76,-142.37 -89.25,-218.96l651.18 -6.39 71.76 88.69 64.43 -0.59c-57.15,-73.44 -111.22,-151.27 -160.46,-230.47l-2.09 -2.59 -667.93 0c-14.55,-61.33 -25.98,-124.44 -33.36,-188.59l534.32 -1.41 35.71 70.78 62 -0.74c-34.81,-64.45 -65.49,-129.7 -90.4,-195.72l-550.65 0c-1.38,-53.52 0.36,-107.41 5.76,-161.25l448.2 1.08 13.46 48.03 46.95 0c-13.73,-51.28 -23.52,-102.99 -28.63,-155.09l-464.75 1.52c9.22,-47.81 21.6,-95.36 37.51,-142.36l387.49 -0.61 -5.11 45.63 40.89 0c0.38,-22.41 1.66,-44.87 3.95,-67.41 2.28,-22.42 5.56,-44.91 9.75,-67.42l-401.16 -1.54c19.65,-43.98 42.53,-87.32 68.24,-129.83l336.37 0.66 -15.73 56.21 29.47 0.1c12.56,-45.63 28.75,-91.14 48.23,-136.11l-346.3 -0.52c25.53,-36.33 53,-71.96 82.15,-106.77l317.3 0c4.61,-8.25 9.32,-16.47 14.13,-24.65zm194.31 1723.84c-6.71,6.56 -13.52,13.18 -20.45,19.89 -83.95,81.27 -184.47,174.23 -303.5,256.72 -80.87,-88.55 -159.07,-168.05 -212.54,-276.61l536.49 0zm103.83 -1596.18c137.5,73.91 261.18,167.11 337.72,281.43 113.3,169.26 123.27,384.82 74.41,568.61 -5.48,20.61 -11.71,40.81 -18.56,60.62 -14.34,-11.71 -28.77,-23.74 -43.3,-36.13 -168.23,-143.39 -351.74,-334.78 -388.72,-551.17 -17.95,-105.05 -1.37,-215.98 38.45,-323.36z"/>
   <path class="fil0" d="M7505.58 2741.73l158.61 155.53 -314.78 314.78 -194.93 -191.8c-61.49,28.43 -126.98,50.56 -195.02,66.12 -80.82,18.48 -165.18,27.93 -250.69,27.93 -269.05,0 -517.34,-95.79 -695.86,-262.79 -170.73,-159.71 -277.31,-383.75 -277.31,-650.82 0,-267.07 106.59,-491.12 277.31,-650.82 178.52,-167.01 426.81,-262.8 695.86,-262.8 269.05,0 517.34,95.79 695.86,262.8 170.72,159.7 277.31,383.75 277.31,650.82 0,111.09 -18.32,215.67 -52.31,311.38 -29.84,84 -71.78,161.07 -124.05,229.67zm-775.97 -218.46l276.82 -283.66 165.28 168.05c8.19,-20.13 15.14,-41.26 20.78,-63.35 11.25,-44.13 17.21,-92.12 17.21,-143.63 0,-151.29 -51.67,-272.79 -136.96,-357.16 -89.93,-88.97 -218.35,-137.81 -363.97,-137.81 -145.62,0 -274.04,48.84 -363.97,137.81 -85.29,84.37 -136.96,205.87 -136.96,357.16 0,151.29 51.67,272.79 136.96,357.16 89.93,88.97 218.35,137.81 363.97,137.81 35.19,0 68.31,-2.71 99.77,-7.78l12.25 -2.1 -125.19 -127.65 34.01 -34.85zm1240.07 -307.7l0 -889.79 472.25 0 0 892.77c0,152.63 34.24,273.36 106.62,353.07 67.48,74.32 170.91,115.09 313.9,115.09 142.99,0 246.42,-40.77 313.9,-115.09 72.38,-79.71 106.62,-200.44 106.62,-353.07l0 -892.77 472.25 0 0 889.79c0,282.9 -85.16,505.15 -237.48,658.54 -156.12,157.24 -380.98,240.18 -655.29,240.18 -274.31,0 -499.17,-82.94 -655.29,-240.18 -152.32,-153.39 -237.48,-375.64 -237.48,-658.54zm2097.09 807.03l0 -1696.82 1020.82 0c208.99,0 392.64,71.44 523.52,196.02 128.43,122.23 205.46,294.68 205.46,500.2 0,132.37 -32.17,249.33 -89.4,347.75 -51.96,89.35 -124.35,162.95 -211.89,218.55l270.82 484.3 -520.05 0 -193.57 -366.29 -533.46 0 0 366.29 -472.25 0 0 -50zm1005.93 -1257.33l-533.68 0 0 501.55 533.68 0c84.92,0 155.12,-22.65 202.34,-65.94 43.92,-40.26 69.28,-100.4 69.28,-178.88 0,-79.85 -26.28,-143.48 -71.72,-186.82 -47.29,-45.09 -116.55,-69.91 -199.9,-69.91zm897.6 -55.96l0 -383.53 1812.34 0 0 433.53 -670.05 0 0 1313.29 -472.25 0 0 -1313.29 -670.04 0 0 -50z"/>
   <path class="fil1" d="M5971.86 3506.06l0 467.98 428.21 0 0 -95.63 -322.42 0 0 -372.35 -105.79 0zm794.81 234.41c0,-96.47 68.54,-154.86 156.55,-154.86 88.01,0 156.56,58.39 156.56,154.86 0,96.48 -68.55,154.87 -156.56,154.87 -88.01,0 -156.55,-58.39 -156.55,-154.87zm418.89 0c0,-147.25 -120.16,-245.41 -262.34,-245.41 -142.17,0 -262.34,98.16 -262.34,245.41 0,147.25 120.17,245.42 262.34,245.42 142.18,0 262.34,-98.17 262.34,-245.42zm573.09 -38.08l0 87.17 119.33 4.23 0 53.31c-38.09,29.62 -77.01,42.31 -143.87,42.31 -93.93,0 -154.86,-56.7 -154.86,-148.94 0,-92.24 60.93,-148.94 154.86,-148.94 77.01,0 115.94,21.16 153.18,69.39l83.78 -47.39c-53.32,-79.55 -126.94,-118.47 -235.27,-118.47 -147.24,0 -261.49,93.93 -261.49,245.41 0,151.48 114.25,245.42 261.49,245.42 70.24,0 118.48,-16.93 163.33,-48.24l14.39 36.39 66.01 0 0 -271.65 -220.88 0zm529.08 -196.33l0 467.98 105.79 0 0 -467.98 -105.79 0zm870.97 58.39c-72.77,-54.16 -148.94,-69.39 -236.1,-69.39 -119.32,0 -217.49,45.69 -217.49,144.71 0,87.16 58.39,124.4 154.02,135.4l157.4 17.77c39.78,4.23 53.32,16.93 53.32,42.31 0,39.78 -54.16,58.4 -128.63,58.4 -77.01,0 -139.64,-20.31 -203.95,-65.17l-49.93 82.09c74.47,55.01 146.4,75.32 242.03,75.32 140.48,0 242.87,-47.39 242.87,-152.33 0,-86.32 -61.77,-128.63 -161.63,-140.48l-140.48 -16.08c-36.39,-4.23 -60.93,-11 -60.93,-38.08 0,-26.23 22,-49.93 113.4,-49.93 74.47,0 130.32,15.23 185.33,53.32l50.77 -77.86zm282.83 -58.39l0 94.78 190.41 0 0 373.2 105.78 0 0 -373.2 190.41 0 0 -94.78 -486.6 0zm773.65 0l0 467.98 105.79 0 0 -467.98 -105.79 0zm899.75 114.24c-48.24,-82.08 -127.79,-125.24 -236.96,-125.24 -147.24,0 -261.49,93.93 -261.49,245.41 0,151.48 111.71,245.42 261.49,245.42 109.17,0 188.72,-43.16 236.96,-125.25l-82.09 -47.39c-35.54,50.78 -82.09,78.7 -156.56,78.7 -91.39,0 -154.86,-60.93 -154.86,-151.48 0,-92.24 60.93,-151.48 154.86,-151.48 74.47,0 121.02,27.93 156.56,78.7l82.09 -47.39zm755.03 -55.85c-72.77,-54.16 -148.94,-69.39 -236.1,-69.39 -119.32,0 -217.49,45.69 -217.49,144.71 0,87.16 58.39,124.4 154.02,135.4l157.4 17.77c39.78,4.23 53.32,16.93 53.32,42.31 0,39.78 -54.16,58.4 -128.63,58.4 -77.01,0 -139.64,-20.31 -203.95,-65.17l-49.93 82.09c74.47,55.01 146.4,75.32 242.03,75.32 140.48,0 242.87,-47.39 242.87,-152.33 0,-86.32 -61.77,-128.63 -161.63,-140.48l-140.48 -16.08c-36.39,-4.23 -60.93,-11 -60.93,-38.08 0,-26.23 22,-49.93 113.4,-49.93 74.47,0 130.32,15.23 185.33,53.32l50.77 -77.86z"/>
  </g>
 </g>
</svg>
