<?xml version="1.0" encoding="UTF-8"?>
<!DOCTYPE svg PUBLIC "-//W3C//DTD SVG 1.1//EN" "http://www.w3.org/Graphics/SVG/1.1/DTD/svg11.dtd">
<!-- Creator: CorelDRAW -->
<svg xmlns="http://www.w3.org/2000/svg" xml:space="preserve" width="107.491mm" height="36.0507mm" version="1.1" style="shape-rendering:geometricPrecision; text-rendering:geometricPrecision; image-rendering:optimizeQuality; fill-rule:evenodd; clip-rule:evenodd"
viewBox="0 0 10749.14 3605.07"
 xmlns:xlink="http://www.w3.org/1999/xlink"
 xmlns:xodm="http://www.corel.com/coreldraw/odm/2003">
 <defs>
  <style type="text/css">
   <![CDATA[
    .fil0 {fill:white}
    .fil1 {fill:white;fill-rule:nonzero}
   ]]>
  </style>
 </defs>
 <g id="Слой_x0020_1">
  <metadata id="CorelCorpID_0Corel-Layer"/>
  <g id="_2517657550368">
   <path class="fil0" d="M2364.32 1943.13l211.87 207.76 -420.48 420.48 -260.39 -256.21c-82.13,37.98 -169.62,67.54 -260.5,88.32 -107.96,24.69 -220.65,37.31 -334.87,37.31 -359.39,0 -691.06,-127.95 -929.52,-351.03 -228.06,-213.34 -370.43,-512.61 -370.43,-869.36 0,-356.75 142.38,-656.03 370.43,-869.35 238.46,-223.09 570.13,-351.05 929.52,-351.05 359.39,0 691.06,127.96 929.52,351.05 228.05,213.32 370.43,512.6 370.43,869.35 0,148.4 -24.47,288.09 -69.88,415.94 -39.86,112.21 -95.88,215.16 -165.7,306.79zm-1036.53 -291.81l369.77 -378.91 220.78 224.47c10.94,-26.88 20.22,-55.11 27.76,-84.62 15.02,-58.95 22.99,-123.05 22.99,-191.86 0,-202.09 -69.02,-364.39 -182.95,-477.09 -120.13,-118.84 -291.67,-184.08 -486.19,-184.08 -194.52,0 -366.06,65.24 -486.19,184.08 -113.93,112.7 -182.95,275 -182.95,477.09 0,202.09 69.02,364.39 182.95,477.09 120.13,118.85 291.67,184.09 486.19,184.09 47.01,0 91.25,-3.62 133.27,-10.39l16.36 -2.81 -167.22 -170.51 45.43 -46.55zm1656.47 -411.03l0 -1188.57 630.82 0 0 1192.55c0,203.89 45.74,365.16 142.43,471.63 90.13,99.28 228.29,153.74 419.3,153.74 191,0 329.16,-54.46 419.3,-153.74 96.69,-106.47 142.42,-267.74 142.42,-471.63l0 -1192.55 630.83 0 0 1188.57c0,377.9 -113.76,674.78 -317.22,879.67 -208.55,210.04 -508.91,320.83 -875.33,320.83 -366.42,0 -666.79,-110.79 -875.33,-320.83 -203.47,-204.89 -317.22,-501.77 -317.22,-879.67zm2801.27 1078.02l0 -2266.59 1363.59 0c279.17,0 524.49,95.43 699.32,261.84 171.55,163.28 274.45,393.63 274.45,668.16 0,176.82 -42.98,333.06 -119.42,464.53 -69.41,119.35 -166.11,217.66 -283.04,291.93l361.76 646.92 -694.68 0 -258.57 -489.28 -712.59 0 0 489.28 -630.82 0 0 -66.79zm1343.7 -1679.52l-712.88 0 0 669.96 712.88 0c113.44,0 207.21,-30.25 270.29,-88.08 58.67,-53.78 92.54,-134.11 92.54,-238.95 0,-106.66 -35.1,-191.65 -95.8,-249.55 -63.17,-60.23 -155.69,-93.38 -267.03,-93.38zm1199.01 -74.75l0 -512.32 2420.9 0 0 579.11 -895.04 0 0 1754.27 -630.83 0 0 -1754.27 -895.03 0 0 -66.79z"/>
   <path class="fil1" d="M315.58 2964.11l0 625.13 572 0 0 -127.74 -430.69 0 0 -497.39 -141.31 0zm1061.7 313.13c0,-128.87 91.55,-206.86 209.12,-206.86 117.56,0 209.13,77.99 209.13,206.86 0,128.87 -91.57,206.87 -209.13,206.87 -117.57,0 -209.12,-78 -209.12,-206.87zm559.55 0c0,-196.7 -160.51,-327.82 -350.43,-327.82 -189.91,0 -350.44,131.12 -350.44,327.82 0,196.69 160.53,327.83 350.44,327.83 189.92,0 350.43,-131.14 350.43,-327.83zm765.52 -50.87l0 116.44 159.4 5.65 0 71.21c-50.88,39.57 -102.87,56.52 -192.18,56.52 -125.47,0 -206.86,-75.74 -206.86,-198.95 0,-123.22 81.39,-198.96 206.86,-198.96 102.87,0 154.87,28.27 204.62,92.69l111.91 -63.3c-71.22,-106.26 -169.56,-158.25 -314.27,-158.25 -196.68,0 -349.3,125.47 -349.3,327.82 0,202.34 152.62,327.83 349.3,327.83 93.83,0 158.26,-22.62 218.17,-64.44l19.23 48.61 88.17 0 0 -362.87 -295.05 0zm706.74 -262.26l0 625.13 141.31 0 0 -625.13 -141.31 0zm1163.43 78c-97.2,-72.35 -198.95,-92.69 -315.38,-92.69 -159.38,0 -290.52,61.03 -290.52,193.3 0,116.43 78,166.17 205.74,180.87l210.25 23.74c53.14,5.65 71.23,22.61 71.23,56.51 0,53.14 -72.35,78.01 -171.82,78.01 -102.87,0 -186.53,-27.13 -272.44,-87.05l-66.69 109.65c99.47,73.49 195.56,100.62 323.3,100.62 187.65,0 324.42,-63.31 324.42,-203.48 0,-115.31 -82.51,-171.83 -215.9,-187.66l-187.66 -21.48c-48.6,-5.65 -81.39,-14.69 -81.39,-50.86 0,-35.04 29.39,-66.7 151.48,-66.7 99.48,0 174.08,20.35 247.56,71.23l67.82 -104.01zm377.8 -78l0 126.61 254.35 0 0 498.52 141.3 0 0 -498.52 254.35 0 0 -126.61 -650 0zm1033.44 0l0 625.13 141.31 0 0 -625.13 -141.31 0zm1201.87 152.61c-64.44,-109.65 -170.7,-167.3 -316.53,-167.3 -196.68,0 -349.29,125.47 -349.29,327.82 0,202.34 149.22,327.83 349.29,327.83 145.83,0 252.09,-57.66 316.53,-167.31l-109.65 -63.3c-47.48,67.83 -109.66,105.12 -209.13,105.12 -122.08,0 -206.86,-81.39 -206.86,-202.34 0,-123.22 81.39,-202.35 206.86,-202.35 99.47,0 161.65,37.31 209.13,105.13l109.65 -63.3zm1008.56 -74.61c-97.2,-72.35 -198.95,-92.69 -315.38,-92.69 -159.38,0 -290.52,61.03 -290.52,193.3 0,116.43 78,166.17 205.74,180.87l210.25 23.74c53.14,5.65 71.23,22.61 71.23,56.51 0,53.14 -72.35,78.01 -171.83,78.01 -102.86,0 -186.53,-27.13 -272.43,-87.05l-66.7 109.65c99.48,73.49 195.56,100.62 323.31,100.62 187.65,0 324.42,-63.31 324.42,-203.48 0,-115.31 -82.51,-171.83 -215.91,-187.66l-187.65 -21.48c-48.61,-5.65 -81.39,-14.69 -81.39,-50.86 0,-35.04 29.39,-66.7 151.48,-66.7 99.48,0 174.08,20.35 247.56,71.23l67.82 -104.01z"/>
  </g>
 </g>
</svg>
